<?xml version="1.0" encoding="utf-8" standalone="no"?>
<!DOCTYPE svg PUBLIC "-//W3C//DTD SVG 1.1//EN"
  "http://www.w3.org/Graphics/SVG/1.1/DTD/svg11.dtd">
<svg xmlns:xlink="http://www.w3.org/1999/xlink" width="460.8pt" height="345.6pt" viewBox="0 0 460.8 345.6" xmlns="http://www.w3.org/2000/svg" version="1.1">
 <metadata>
  <rdf:RDF xmlns:dc="http://purl.org/dc/elements/1.1/" xmlns:cc="http://creativecommons.org/ns#" xmlns:rdf="http://www.w3.org/1999/02/22-rdf-syntax-ns#">
   <cc:Work>
    <dc:type rdf:resource="http://purl.org/dc/dcmitype/StillImage"/>
    <dc:date>2026-01-09T13:07:10.711257</dc:date>
    <dc:format>image/svg+xml</dc:format>
    <dc:creator>
     <cc:Agent>
      <dc:title>Matplotlib v3.10.7, https://matplotlib.org/</dc:title>
     </cc:Agent>
    </dc:creator>
   </cc:Work>
  </rdf:RDF>
 </metadata>
 <defs>
  <style type="text/css">*{stroke-linejoin: round; stroke-linecap: butt}</style>
 </defs>
 <g id="figure_1">
  <g id="patch_1">
   <path d="M 0 345.6 
L 460.8 345.6 
L 460.8 0 
L 0 0 
z
" style="fill: #ffffff"/>
  </g>
  <g id="axes_1">
   <g id="patch_2">
    <path d="M 57.6 307.584 
L 414.72 307.584 
L 414.72 41.472 
L 57.6 41.472 
z
" style="fill: #ffffff"/>
   </g>
   <g id="matplotlib.axis_1">
    <g id="xtick_1">
     <g id="line2d_1">
      <defs>
       <path id="meaa6c73613" d="M 0 0 
L 0 3.5 
" style="stroke: #000000; stroke-width: 0.8"/>
      </defs>
      <g>
       <use xlink:href="#meaa6c73613" x="57.6" y="307.584" style="stroke: #000000; stroke-width: 0.8"/>
      </g>
     </g>
     <g id="text_1">
      <!-- 41.0 -->
      <g transform="translate(46.467187 322.182437) scale(0.1 -0.1)">
       <defs>
        <path id="DejaVuSans-34" d="M 2419 4116 
L 825 1625 
L 2419 1625 
L 2419 4116 
z
M 2253 4666 
L 3047 4666 
L 3047 1625 
L 3713 1625 
L 3713 1100 
L 3047 1100 
L 3047 0 
L 2419 0 
L 2419 1100 
L 313 1100 
L 313 1709 
L 2253 4666 
z
" transform="scale(0.015625)"/>
        <path id="DejaVuSans-31" d="M 794 531 
L 1825 531 
L 1825 4091 
L 703 3866 
L 703 4441 
L 1819 4666 
L 2450 4666 
L 2450 531 
L 3481 531 
L 3481 0 
L 794 0 
L 794 531 
z
" transform="scale(0.015625)"/>
        <path id="DejaVuSans-2e" d="M 684 794 
L 1344 794 
L 1344 0 
L 684 0 
L 684 794 
z
" transform="scale(0.015625)"/>
        <path id="DejaVuSans-30" d="M 2034 4250 
Q 1547 4250 1301 3770 
Q 1056 3291 1056 2328 
Q 1056 1369 1301 889 
Q 1547 409 2034 409 
Q 2525 409 2770 889 
Q 3016 1369 3016 2328 
Q 3016 3291 2770 3770 
Q 2525 4250 2034 4250 
z
M 2034 4750 
Q 2819 4750 3233 4129 
Q 3647 3509 3647 2328 
Q 3647 1150 3233 529 
Q 2819 -91 2034 -91 
Q 1250 -91 836 529 
Q 422 1150 422 2328 
Q 422 3509 836 4129 
Q 1250 4750 2034 4750 
z
" transform="scale(0.015625)"/>
       </defs>
       <use xlink:href="#DejaVuSans-34"/>
       <use xlink:href="#DejaVuSans-31" transform="translate(63.623047 0)"/>
       <use xlink:href="#DejaVuSans-2e" transform="translate(127.246094 0)"/>
       <use xlink:href="#DejaVuSans-30" transform="translate(159.033203 0)"/>
      </g>
     </g>
    </g>
    <g id="xtick_2">
     <g id="line2d_2">
      <g>
       <use xlink:href="#meaa6c73613" x="102.24" y="307.584" style="stroke: #000000; stroke-width: 0.8"/>
      </g>
     </g>
     <g id="text_2">
      <!-- 41.5 -->
      <g transform="translate(91.107187 322.182437) scale(0.1 -0.1)">
       <defs>
        <path id="DejaVuSans-35" d="M 691 4666 
L 3169 4666 
L 3169 4134 
L 1269 4134 
L 1269 2991 
Q 1406 3038 1543 3061 
Q 1681 3084 1819 3084 
Q 2600 3084 3056 2656 
Q 3513 2228 3513 1497 
Q 3513 744 3044 326 
Q 2575 -91 1722 -91 
Q 1428 -91 1123 -41 
Q 819 9 494 109 
L 494 744 
Q 775 591 1075 516 
Q 1375 441 1709 441 
Q 2250 441 2565 725 
Q 2881 1009 2881 1497 
Q 2881 1984 2565 2268 
Q 2250 2553 1709 2553 
Q 1456 2553 1204 2497 
Q 953 2441 691 2322 
L 691 4666 
z
" transform="scale(0.015625)"/>
       </defs>
       <use xlink:href="#DejaVuSans-34"/>
       <use xlink:href="#DejaVuSans-31" transform="translate(63.623047 0)"/>
       <use xlink:href="#DejaVuSans-2e" transform="translate(127.246094 0)"/>
       <use xlink:href="#DejaVuSans-35" transform="translate(159.033203 0)"/>
      </g>
     </g>
    </g>
    <g id="xtick_3">
     <g id="line2d_3">
      <g>
       <use xlink:href="#meaa6c73613" x="146.88" y="307.584" style="stroke: #000000; stroke-width: 0.8"/>
      </g>
     </g>
     <g id="text_3">
      <!-- 42.0 -->
      <g transform="translate(135.747188 322.182437) scale(0.1 -0.1)">
       <defs>
        <path id="DejaVuSans-32" d="M 1228 531 
L 3431 531 
L 3431 0 
L 469 0 
L 469 531 
Q 828 903 1448 1529 
Q 2069 2156 2228 2338 
Q 2531 2678 2651 2914 
Q 2772 3150 2772 3378 
Q 2772 3750 2511 3984 
Q 2250 4219 1831 4219 
Q 1534 4219 1204 4116 
Q 875 4013 500 3803 
L 500 4441 
Q 881 4594 1212 4672 
Q 1544 4750 1819 4750 
Q 2544 4750 2975 4387 
Q 3406 4025 3406 3419 
Q 3406 3131 3298 2873 
Q 3191 2616 2906 2266 
Q 2828 2175 2409 1742 
Q 1991 1309 1228 531 
z
" transform="scale(0.015625)"/>
       </defs>
       <use xlink:href="#DejaVuSans-34"/>
       <use xlink:href="#DejaVuSans-32" transform="translate(63.623047 0)"/>
       <use xlink:href="#DejaVuSans-2e" transform="translate(127.246094 0)"/>
       <use xlink:href="#DejaVuSans-30" transform="translate(159.033203 0)"/>
      </g>
     </g>
    </g>
    <g id="xtick_4">
     <g id="line2d_4">
      <g>
       <use xlink:href="#meaa6c73613" x="191.52" y="307.584" style="stroke: #000000; stroke-width: 0.8"/>
      </g>
     </g>
     <g id="text_4">
      <!-- 42.5 -->
      <g transform="translate(180.387187 322.182437) scale(0.1 -0.1)">
       <use xlink:href="#DejaVuSans-34"/>
       <use xlink:href="#DejaVuSans-32" transform="translate(63.623047 0)"/>
       <use xlink:href="#DejaVuSans-2e" transform="translate(127.246094 0)"/>
       <use xlink:href="#DejaVuSans-35" transform="translate(159.033203 0)"/>
      </g>
     </g>
    </g>
    <g id="xtick_5">
     <g id="line2d_5">
      <g>
       <use xlink:href="#meaa6c73613" x="236.16" y="307.584" style="stroke: #000000; stroke-width: 0.8"/>
      </g>
     </g>
     <g id="text_5">
      <!-- 43.0 -->
      <g transform="translate(225.027187 322.182437) scale(0.1 -0.1)">
       <defs>
        <path id="DejaVuSans-33" d="M 2597 2516 
Q 3050 2419 3304 2112 
Q 3559 1806 3559 1356 
Q 3559 666 3084 287 
Q 2609 -91 1734 -91 
Q 1441 -91 1130 -33 
Q 819 25 488 141 
L 488 750 
Q 750 597 1062 519 
Q 1375 441 1716 441 
Q 2309 441 2620 675 
Q 2931 909 2931 1356 
Q 2931 1769 2642 2001 
Q 2353 2234 1838 2234 
L 1294 2234 
L 1294 2753 
L 1863 2753 
Q 2328 2753 2575 2939 
Q 2822 3125 2822 3475 
Q 2822 3834 2567 4026 
Q 2313 4219 1838 4219 
Q 1578 4219 1281 4162 
Q 984 4106 628 3988 
L 628 4550 
Q 988 4650 1302 4700 
Q 1616 4750 1894 4750 
Q 2613 4750 3031 4423 
Q 3450 4097 3450 3541 
Q 3450 3153 3228 2886 
Q 3006 2619 2597 2516 
z
" transform="scale(0.015625)"/>
       </defs>
       <use xlink:href="#DejaVuSans-34"/>
       <use xlink:href="#DejaVuSans-33" transform="translate(63.623047 0)"/>
       <use xlink:href="#DejaVuSans-2e" transform="translate(127.246094 0)"/>
       <use xlink:href="#DejaVuSans-30" transform="translate(159.033203 0)"/>
      </g>
     </g>
    </g>
    <g id="xtick_6">
     <g id="line2d_6">
      <g>
       <use xlink:href="#meaa6c73613" x="280.8" y="307.584" style="stroke: #000000; stroke-width: 0.8"/>
      </g>
     </g>
     <g id="text_6">
      <!-- 43.5 -->
      <g transform="translate(269.667187 322.182437) scale(0.1 -0.1)">
       <use xlink:href="#DejaVuSans-34"/>
       <use xlink:href="#DejaVuSans-33" transform="translate(63.623047 0)"/>
       <use xlink:href="#DejaVuSans-2e" transform="translate(127.246094 0)"/>
       <use xlink:href="#DejaVuSans-35" transform="translate(159.033203 0)"/>
      </g>
     </g>
    </g>
    <g id="xtick_7">
     <g id="line2d_7">
      <g>
       <use xlink:href="#meaa6c73613" x="325.44" y="307.584" style="stroke: #000000; stroke-width: 0.8"/>
      </g>
     </g>
     <g id="text_7">
      <!-- 44.0 -->
      <g transform="translate(314.307188 322.182437) scale(0.1 -0.1)">
       <use xlink:href="#DejaVuSans-34"/>
       <use xlink:href="#DejaVuSans-34" transform="translate(63.623047 0)"/>
       <use xlink:href="#DejaVuSans-2e" transform="translate(127.246094 0)"/>
       <use xlink:href="#DejaVuSans-30" transform="translate(159.033203 0)"/>
      </g>
     </g>
    </g>
    <g id="xtick_8">
     <g id="line2d_8">
      <g>
       <use xlink:href="#meaa6c73613" x="370.08" y="307.584" style="stroke: #000000; stroke-width: 0.8"/>
      </g>
     </g>
     <g id="text_8">
      <!-- 44.5 -->
      <g transform="translate(358.947187 322.182437) scale(0.1 -0.1)">
       <use xlink:href="#DejaVuSans-34"/>
       <use xlink:href="#DejaVuSans-34" transform="translate(63.623047 0)"/>
       <use xlink:href="#DejaVuSans-2e" transform="translate(127.246094 0)"/>
       <use xlink:href="#DejaVuSans-35" transform="translate(159.033203 0)"/>
      </g>
     </g>
    </g>
    <g id="xtick_9">
     <g id="line2d_9">
      <g>
       <use xlink:href="#meaa6c73613" x="414.72" y="307.584" style="stroke: #000000; stroke-width: 0.8"/>
      </g>
     </g>
     <g id="text_9">
      <!-- 45.0 -->
      <g transform="translate(403.587187 322.182437) scale(0.1 -0.1)">
       <use xlink:href="#DejaVuSans-34"/>
       <use xlink:href="#DejaVuSans-35" transform="translate(63.623047 0)"/>
       <use xlink:href="#DejaVuSans-2e" transform="translate(127.246094 0)"/>
       <use xlink:href="#DejaVuSans-30" transform="translate(159.033203 0)"/>
      </g>
     </g>
    </g>
    <g id="text_10">
     <!-- Czas [s] -->
     <g transform="translate(216.280312 335.860562) scale(0.1 -0.1)">
      <defs>
       <path id="DejaVuSans-43" d="M 4122 4306 
L 4122 3641 
Q 3803 3938 3442 4084 
Q 3081 4231 2675 4231 
Q 1875 4231 1450 3742 
Q 1025 3253 1025 2328 
Q 1025 1406 1450 917 
Q 1875 428 2675 428 
Q 3081 428 3442 575 
Q 3803 722 4122 1019 
L 4122 359 
Q 3791 134 3420 21 
Q 3050 -91 2638 -91 
Q 1578 -91 968 557 
Q 359 1206 359 2328 
Q 359 3453 968 4101 
Q 1578 4750 2638 4750 
Q 3056 4750 3426 4639 
Q 3797 4528 4122 4306 
z
" transform="scale(0.015625)"/>
       <path id="DejaVuSans-7a" d="M 353 3500 
L 3084 3500 
L 3084 2975 
L 922 459 
L 3084 459 
L 3084 0 
L 275 0 
L 275 525 
L 2438 3041 
L 353 3041 
L 353 3500 
z
" transform="scale(0.015625)"/>
       <path id="DejaVuSans-61" d="M 2194 1759 
Q 1497 1759 1228 1600 
Q 959 1441 959 1056 
Q 959 750 1161 570 
Q 1363 391 1709 391 
Q 2188 391 2477 730 
Q 2766 1069 2766 1631 
L 2766 1759 
L 2194 1759 
z
M 3341 1997 
L 3341 0 
L 2766 0 
L 2766 531 
Q 2569 213 2275 61 
Q 1981 -91 1556 -91 
Q 1019 -91 701 211 
Q 384 513 384 1019 
Q 384 1609 779 1909 
Q 1175 2209 1959 2209 
L 2766 2209 
L 2766 2266 
Q 2766 2663 2505 2880 
Q 2244 3097 1772 3097 
Q 1472 3097 1187 3025 
Q 903 2953 641 2809 
L 641 3341 
Q 956 3463 1253 3523 
Q 1550 3584 1831 3584 
Q 2591 3584 2966 3190 
Q 3341 2797 3341 1997 
z
" transform="scale(0.015625)"/>
       <path id="DejaVuSans-73" d="M 2834 3397 
L 2834 2853 
Q 2591 2978 2328 3040 
Q 2066 3103 1784 3103 
Q 1356 3103 1142 2972 
Q 928 2841 928 2578 
Q 928 2378 1081 2264 
Q 1234 2150 1697 2047 
L 1894 2003 
Q 2506 1872 2764 1633 
Q 3022 1394 3022 966 
Q 3022 478 2636 193 
Q 2250 -91 1575 -91 
Q 1294 -91 989 -36 
Q 684 19 347 128 
L 347 722 
Q 666 556 975 473 
Q 1284 391 1588 391 
Q 1994 391 2212 530 
Q 2431 669 2431 922 
Q 2431 1156 2273 1281 
Q 2116 1406 1581 1522 
L 1381 1569 
Q 847 1681 609 1914 
Q 372 2147 372 2553 
Q 372 3047 722 3315 
Q 1072 3584 1716 3584 
Q 2034 3584 2315 3537 
Q 2597 3491 2834 3397 
z
" transform="scale(0.015625)"/>
       <path id="DejaVuSans-20" transform="scale(0.015625)"/>
       <path id="DejaVuSans-5b" d="M 550 4863 
L 1875 4863 
L 1875 4416 
L 1125 4416 
L 1125 -397 
L 1875 -397 
L 1875 -844 
L 550 -844 
L 550 4863 
z
" transform="scale(0.015625)"/>
       <path id="DejaVuSans-5d" d="M 1947 4863 
L 1947 -844 
L 622 -844 
L 622 -397 
L 1369 -397 
L 1369 4416 
L 622 4416 
L 622 4863 
L 1947 4863 
z
" transform="scale(0.015625)"/>
      </defs>
      <use xlink:href="#DejaVuSans-43"/>
      <use xlink:href="#DejaVuSans-7a" transform="translate(69.824219 0)"/>
      <use xlink:href="#DejaVuSans-61" transform="translate(122.314453 0)"/>
      <use xlink:href="#DejaVuSans-73" transform="translate(183.59375 0)"/>
      <use xlink:href="#DejaVuSans-20" transform="translate(235.693359 0)"/>
      <use xlink:href="#DejaVuSans-5b" transform="translate(267.480469 0)"/>
      <use xlink:href="#DejaVuSans-73" transform="translate(306.494141 0)"/>
      <use xlink:href="#DejaVuSans-5d" transform="translate(358.59375 0)"/>
     </g>
    </g>
   </g>
   <g id="matplotlib.axis_2">
    <g id="ytick_1">
     <g id="line2d_10">
      <defs>
       <path id="m451d2550e6" d="M 0 0 
L -3.5 0 
" style="stroke: #000000; stroke-width: 0.8"/>
      </defs>
      <g>
       <use xlink:href="#m451d2550e6" x="57.6" y="261.303652" style="stroke: #000000; stroke-width: 0.8"/>
      </g>
     </g>
     <g id="text_11">
      <!-- −50 -->
      <g transform="translate(29.495313 265.102871) scale(0.1 -0.1)">
       <defs>
        <path id="DejaVuSans-2212" d="M 678 2272 
L 4684 2272 
L 4684 1741 
L 678 1741 
L 678 2272 
z
" transform="scale(0.015625)"/>
       </defs>
       <use xlink:href="#DejaVuSans-2212"/>
       <use xlink:href="#DejaVuSans-35" transform="translate(83.789062 0)"/>
       <use xlink:href="#DejaVuSans-30" transform="translate(147.412109 0)"/>
      </g>
     </g>
    </g>
    <g id="ytick_2">
     <g id="line2d_11">
      <g>
       <use xlink:href="#m451d2550e6" x="57.6" y="203.453217" style="stroke: #000000; stroke-width: 0.8"/>
      </g>
     </g>
     <g id="text_12">
      <!-- 0 -->
      <g transform="translate(44.2375 207.252436) scale(0.1 -0.1)">
       <use xlink:href="#DejaVuSans-30"/>
      </g>
     </g>
    </g>
    <g id="ytick_3">
     <g id="line2d_12">
      <g>
       <use xlink:href="#m451d2550e6" x="57.6" y="145.602783" style="stroke: #000000; stroke-width: 0.8"/>
      </g>
     </g>
     <g id="text_13">
      <!-- 50 -->
      <g transform="translate(37.875 149.402001) scale(0.1 -0.1)">
       <use xlink:href="#DejaVuSans-35"/>
       <use xlink:href="#DejaVuSans-30" transform="translate(63.623047 0)"/>
      </g>
     </g>
    </g>
    <g id="ytick_4">
     <g id="line2d_13">
      <g>
       <use xlink:href="#m451d2550e6" x="57.6" y="87.752348" style="stroke: #000000; stroke-width: 0.8"/>
      </g>
     </g>
     <g id="text_14">
      <!-- 100 -->
      <g transform="translate(31.5125 91.551567) scale(0.1 -0.1)">
       <use xlink:href="#DejaVuSans-31"/>
       <use xlink:href="#DejaVuSans-30" transform="translate(63.623047 0)"/>
       <use xlink:href="#DejaVuSans-30" transform="translate(127.246094 0)"/>
      </g>
     </g>
    </g>
    <g id="text_15">
     <!-- Amplituda sygnału z czoła (EMG) -->
     <g transform="translate(23.415625 256.84675) rotate(-90) scale(0.1 -0.1)">
      <defs>
       <path id="DejaVuSans-41" d="M 2188 4044 
L 1331 1722 
L 3047 1722 
L 2188 4044 
z
M 1831 4666 
L 2547 4666 
L 4325 0 
L 3669 0 
L 3244 1197 
L 1141 1197 
L 716 0 
L 50 0 
L 1831 4666 
z
" transform="scale(0.015625)"/>
       <path id="DejaVuSans-6d" d="M 3328 2828 
Q 3544 3216 3844 3400 
Q 4144 3584 4550 3584 
Q 5097 3584 5394 3201 
Q 5691 2819 5691 2113 
L 5691 0 
L 5113 0 
L 5113 2094 
Q 5113 2597 4934 2840 
Q 4756 3084 4391 3084 
Q 3944 3084 3684 2787 
Q 3425 2491 3425 1978 
L 3425 0 
L 2847 0 
L 2847 2094 
Q 2847 2600 2669 2842 
Q 2491 3084 2119 3084 
Q 1678 3084 1418 2786 
Q 1159 2488 1159 1978 
L 1159 0 
L 581 0 
L 581 3500 
L 1159 3500 
L 1159 2956 
Q 1356 3278 1631 3431 
Q 1906 3584 2284 3584 
Q 2666 3584 2933 3390 
Q 3200 3197 3328 2828 
z
" transform="scale(0.015625)"/>
       <path id="DejaVuSans-70" d="M 1159 525 
L 1159 -1331 
L 581 -1331 
L 581 3500 
L 1159 3500 
L 1159 2969 
Q 1341 3281 1617 3432 
Q 1894 3584 2278 3584 
Q 2916 3584 3314 3078 
Q 3713 2572 3713 1747 
Q 3713 922 3314 415 
Q 2916 -91 2278 -91 
Q 1894 -91 1617 61 
Q 1341 213 1159 525 
z
M 3116 1747 
Q 3116 2381 2855 2742 
Q 2594 3103 2138 3103 
Q 1681 3103 1420 2742 
Q 1159 2381 1159 1747 
Q 1159 1113 1420 752 
Q 1681 391 2138 391 
Q 2594 391 2855 752 
Q 3116 1113 3116 1747 
z
" transform="scale(0.015625)"/>
       <path id="DejaVuSans-6c" d="M 603 4863 
L 1178 4863 
L 1178 0 
L 603 0 
L 603 4863 
z
" transform="scale(0.015625)"/>
       <path id="DejaVuSans-69" d="M 603 3500 
L 1178 3500 
L 1178 0 
L 603 0 
L 603 3500 
z
M 603 4863 
L 1178 4863 
L 1178 4134 
L 603 4134 
L 603 4863 
z
" transform="scale(0.015625)"/>
       <path id="DejaVuSans-74" d="M 1172 4494 
L 1172 3500 
L 2356 3500 
L 2356 3053 
L 1172 3053 
L 1172 1153 
Q 1172 725 1289 603 
Q 1406 481 1766 481 
L 2356 481 
L 2356 0 
L 1766 0 
Q 1100 0 847 248 
Q 594 497 594 1153 
L 594 3053 
L 172 3053 
L 172 3500 
L 594 3500 
L 594 4494 
L 1172 4494 
z
" transform="scale(0.015625)"/>
       <path id="DejaVuSans-75" d="M 544 1381 
L 544 3500 
L 1119 3500 
L 1119 1403 
Q 1119 906 1312 657 
Q 1506 409 1894 409 
Q 2359 409 2629 706 
Q 2900 1003 2900 1516 
L 2900 3500 
L 3475 3500 
L 3475 0 
L 2900 0 
L 2900 538 
Q 2691 219 2414 64 
Q 2138 -91 1772 -91 
Q 1169 -91 856 284 
Q 544 659 544 1381 
z
M 1991 3584 
L 1991 3584 
z
" transform="scale(0.015625)"/>
       <path id="DejaVuSans-64" d="M 2906 2969 
L 2906 4863 
L 3481 4863 
L 3481 0 
L 2906 0 
L 2906 525 
Q 2725 213 2448 61 
Q 2172 -91 1784 -91 
Q 1150 -91 751 415 
Q 353 922 353 1747 
Q 353 2572 751 3078 
Q 1150 3584 1784 3584 
Q 2172 3584 2448 3432 
Q 2725 3281 2906 2969 
z
M 947 1747 
Q 947 1113 1208 752 
Q 1469 391 1925 391 
Q 2381 391 2643 752 
Q 2906 1113 2906 1747 
Q 2906 2381 2643 2742 
Q 2381 3103 1925 3103 
Q 1469 3103 1208 2742 
Q 947 2381 947 1747 
z
" transform="scale(0.015625)"/>
       <path id="DejaVuSans-79" d="M 2059 -325 
Q 1816 -950 1584 -1140 
Q 1353 -1331 966 -1331 
L 506 -1331 
L 506 -850 
L 844 -850 
Q 1081 -850 1212 -737 
Q 1344 -625 1503 -206 
L 1606 56 
L 191 3500 
L 800 3500 
L 1894 763 
L 2988 3500 
L 3597 3500 
L 2059 -325 
z
" transform="scale(0.015625)"/>
       <path id="DejaVuSans-67" d="M 2906 1791 
Q 2906 2416 2648 2759 
Q 2391 3103 1925 3103 
Q 1463 3103 1205 2759 
Q 947 2416 947 1791 
Q 947 1169 1205 825 
Q 1463 481 1925 481 
Q 2391 481 2648 825 
Q 2906 1169 2906 1791 
z
M 3481 434 
Q 3481 -459 3084 -895 
Q 2688 -1331 1869 -1331 
Q 1566 -1331 1297 -1286 
Q 1028 -1241 775 -1147 
L 775 -588 
Q 1028 -725 1275 -790 
Q 1522 -856 1778 -856 
Q 2344 -856 2625 -561 
Q 2906 -266 2906 331 
L 2906 616 
Q 2728 306 2450 153 
Q 2172 0 1784 0 
Q 1141 0 747 490 
Q 353 981 353 1791 
Q 353 2603 747 3093 
Q 1141 3584 1784 3584 
Q 2172 3584 2450 3431 
Q 2728 3278 2906 2969 
L 2906 3500 
L 3481 3500 
L 3481 434 
z
" transform="scale(0.015625)"/>
       <path id="DejaVuSans-6e" d="M 3513 2113 
L 3513 0 
L 2938 0 
L 2938 2094 
Q 2938 2591 2744 2837 
Q 2550 3084 2163 3084 
Q 1697 3084 1428 2787 
Q 1159 2491 1159 1978 
L 1159 0 
L 581 0 
L 581 3500 
L 1159 3500 
L 1159 2956 
Q 1366 3272 1645 3428 
Q 1925 3584 2291 3584 
Q 2894 3584 3203 3211 
Q 3513 2838 3513 2113 
z
" transform="scale(0.015625)"/>
       <path id="DejaVuSans-142" d="M 622 4863 
L 1197 4863 
L 1197 2981 
L 1588 3263 
L 1825 2931 
L 1197 2491 
L 1197 0 
L 622 0 
L 622 2081 
L 238 1806 
L 6 2138 
L 622 2578 
L 622 4863 
z
" transform="scale(0.015625)"/>
       <path id="DejaVuSans-63" d="M 3122 3366 
L 3122 2828 
Q 2878 2963 2633 3030 
Q 2388 3097 2138 3097 
Q 1578 3097 1268 2742 
Q 959 2388 959 1747 
Q 959 1106 1268 751 
Q 1578 397 2138 397 
Q 2388 397 2633 464 
Q 2878 531 3122 666 
L 3122 134 
Q 2881 22 2623 -34 
Q 2366 -91 2075 -91 
Q 1284 -91 818 406 
Q 353 903 353 1747 
Q 353 2603 823 3093 
Q 1294 3584 2113 3584 
Q 2378 3584 2631 3529 
Q 2884 3475 3122 3366 
z
" transform="scale(0.015625)"/>
       <path id="DejaVuSans-6f" d="M 1959 3097 
Q 1497 3097 1228 2736 
Q 959 2375 959 1747 
Q 959 1119 1226 758 
Q 1494 397 1959 397 
Q 2419 397 2687 759 
Q 2956 1122 2956 1747 
Q 2956 2369 2687 2733 
Q 2419 3097 1959 3097 
z
M 1959 3584 
Q 2709 3584 3137 3096 
Q 3566 2609 3566 1747 
Q 3566 888 3137 398 
Q 2709 -91 1959 -91 
Q 1206 -91 779 398 
Q 353 888 353 1747 
Q 353 2609 779 3096 
Q 1206 3584 1959 3584 
z
" transform="scale(0.015625)"/>
       <path id="DejaVuSans-28" d="M 1984 4856 
Q 1566 4138 1362 3434 
Q 1159 2731 1159 2009 
Q 1159 1288 1364 580 
Q 1569 -128 1984 -844 
L 1484 -844 
Q 1016 -109 783 600 
Q 550 1309 550 2009 
Q 550 2706 781 3412 
Q 1013 4119 1484 4856 
L 1984 4856 
z
" transform="scale(0.015625)"/>
       <path id="DejaVuSans-45" d="M 628 4666 
L 3578 4666 
L 3578 4134 
L 1259 4134 
L 1259 2753 
L 3481 2753 
L 3481 2222 
L 1259 2222 
L 1259 531 
L 3634 531 
L 3634 0 
L 628 0 
L 628 4666 
z
" transform="scale(0.015625)"/>
       <path id="DejaVuSans-4d" d="M 628 4666 
L 1569 4666 
L 2759 1491 
L 3956 4666 
L 4897 4666 
L 4897 0 
L 4281 0 
L 4281 4097 
L 3078 897 
L 2444 897 
L 1241 4097 
L 1241 0 
L 628 0 
L 628 4666 
z
" transform="scale(0.015625)"/>
       <path id="DejaVuSans-47" d="M 3809 666 
L 3809 1919 
L 2778 1919 
L 2778 2438 
L 4434 2438 
L 4434 434 
Q 4069 175 3628 42 
Q 3188 -91 2688 -91 
Q 1594 -91 976 548 
Q 359 1188 359 2328 
Q 359 3472 976 4111 
Q 1594 4750 2688 4750 
Q 3144 4750 3555 4637 
Q 3966 4525 4313 4306 
L 4313 3634 
Q 3963 3931 3569 4081 
Q 3175 4231 2741 4231 
Q 1884 4231 1454 3753 
Q 1025 3275 1025 2328 
Q 1025 1384 1454 906 
Q 1884 428 2741 428 
Q 3075 428 3337 486 
Q 3600 544 3809 666 
z
" transform="scale(0.015625)"/>
       <path id="DejaVuSans-29" d="M 513 4856 
L 1013 4856 
Q 1481 4119 1714 3412 
Q 1947 2706 1947 2009 
Q 1947 1309 1714 600 
Q 1481 -109 1013 -844 
L 513 -844 
Q 928 -128 1133 580 
Q 1338 1288 1338 2009 
Q 1338 2731 1133 3434 
Q 928 4138 513 4856 
z
" transform="scale(0.015625)"/>
      </defs>
      <use xlink:href="#DejaVuSans-41"/>
      <use xlink:href="#DejaVuSans-6d" transform="translate(68.408203 0)"/>
      <use xlink:href="#DejaVuSans-70" transform="translate(165.820312 0)"/>
      <use xlink:href="#DejaVuSans-6c" transform="translate(229.296875 0)"/>
      <use xlink:href="#DejaVuSans-69" transform="translate(257.080078 0)"/>
      <use xlink:href="#DejaVuSans-74" transform="translate(284.863281 0)"/>
      <use xlink:href="#DejaVuSans-75" transform="translate(324.072266 0)"/>
      <use xlink:href="#DejaVuSans-64" transform="translate(387.451172 0)"/>
      <use xlink:href="#DejaVuSans-61" transform="translate(450.927734 0)"/>
      <use xlink:href="#DejaVuSans-20" transform="translate(512.207031 0)"/>
      <use xlink:href="#DejaVuSans-73" transform="translate(543.994141 0)"/>
      <use xlink:href="#DejaVuSans-79" transform="translate(596.09375 0)"/>
      <use xlink:href="#DejaVuSans-67" transform="translate(655.273438 0)"/>
      <use xlink:href="#DejaVuSans-6e" transform="translate(718.75 0)"/>
      <use xlink:href="#DejaVuSans-61" transform="translate(782.128906 0)"/>
      <use xlink:href="#DejaVuSans-142" transform="translate(843.408203 0)"/>
      <use xlink:href="#DejaVuSans-75" transform="translate(871.826172 0)"/>
      <use xlink:href="#DejaVuSans-20" transform="translate(935.205078 0)"/>
      <use xlink:href="#DejaVuSans-7a" transform="translate(966.992188 0)"/>
      <use xlink:href="#DejaVuSans-20" transform="translate(1019.482422 0)"/>
      <use xlink:href="#DejaVuSans-63" transform="translate(1051.269531 0)"/>
      <use xlink:href="#DejaVuSans-7a" transform="translate(1106.25 0)"/>
      <use xlink:href="#DejaVuSans-6f" transform="translate(1158.740234 0)"/>
      <use xlink:href="#DejaVuSans-142" transform="translate(1219.921875 0)"/>
      <use xlink:href="#DejaVuSans-61" transform="translate(1248.339844 0)"/>
      <use xlink:href="#DejaVuSans-20" transform="translate(1309.619141 0)"/>
      <use xlink:href="#DejaVuSans-28" transform="translate(1341.40625 0)"/>
      <use xlink:href="#DejaVuSans-45" transform="translate(1380.419922 0)"/>
      <use xlink:href="#DejaVuSans-4d" transform="translate(1443.603516 0)"/>
      <use xlink:href="#DejaVuSans-47" transform="translate(1529.882812 0)"/>
      <use xlink:href="#DejaVuSans-29" transform="translate(1607.373047 0)"/>
     </g>
    </g>
   </g>
   <g id="line2d_14">
    <path d="M 57.362769 206.772747 
L 57.809194 203.877502 
L 58.25562 202.40388 
L 58.702045 204.727635 
L 59.148471 209.865962 
L 59.594896 212.654799 
L 60.041322 208.929369 
L 60.487747 201.177043 
L 60.934173 196.561074 
L 61.380598 198.94825 
L 61.827024 204.904644 
L 62.273449 208.240148 
L 62.719875 206.824389 
L 63.1663 203.659528 
L 63.612726 202.14959 
L 64.059151 202.169867 
L 64.505577 201.434186 
L 64.952002 199.41984 
L 65.398428 198.166049 
L 65.844853 199.194731 
L 66.291279 201.406294 
L 66.737704 202.916617 
L 67.18413 203.679836 
L 67.630555 204.922904 
L 68.076981 206.517928 
L 68.523406 206.276281 
L 68.969832 202.372357 
L 69.416257 196.347235 
L 69.862683 193.225055 
L 70.309109 197.291614 
L 70.755534 206.741185 
L 71.20196 213.777385 
L 71.648385 211.930828 
L 72.541236 194.52455 
L 72.987662 192.903453 
L 73.434087 197.292446 
L 73.880513 202.873484 
L 74.326938 205.918731 
L 74.773364 205.731173 
L 75.219789 203.253721 
L 75.666215 199.845525 
L 76.11264 197.657826 
L 76.559066 199.320798 
L 77.451917 211.878606 
L 77.898342 214.015559 
L 78.344768 210.187084 
L 79.237619 198.00664 
L 79.684044 195.039342 
L 80.13047 194.482325 
L 80.576895 196.754472 
L 81.023321 202.352555 
L 81.469746 209.509459 
L 81.916172 214.215688 
L 82.362597 213.757819 
L 83.255448 205.214379 
L 83.701874 203.414875 
L 84.148299 204.216874 
L 85.487576 211.976163 
L 85.934001 211.248677 
L 86.826852 203.95237 
L 87.273278 202.237558 
L 87.719703 202.288208 
L 88.166129 201.532817 
L 89.05898 195.429624 
L 89.505406 194.911394 
L 89.951831 197.699036 
L 90.398257 201.475701 
L 90.844682 203.741579 
L 91.291108 204.224491 
L 91.737533 204.2953 
L 92.183959 204.989228 
L 92.630384 206.103952 
L 93.07681 206.476082 
L 93.523235 204.942062 
L 94.416086 199.371062 
L 94.862512 199.693243 
L 95.755363 204.792746 
L 96.201788 204.092809 
L 97.541065 192.618136 
L 97.98749 193.492064 
L 98.880341 198.31618 
L 99.326767 201.27525 
L 99.773192 205.108178 
L 100.219618 207.949144 
L 100.666043 207.56409 
L 101.112469 204.893445 
L 101.558894 203.839439 
L 102.00532 206.800487 
L 102.451745 211.674207 
L 102.898171 214.313026 
L 103.344596 213.229937 
L 103.791022 210.708966 
L 104.237447 209.303224 
L 104.683873 208.570871 
L 105.130298 206.478192 
L 105.576724 203.225895 
L 106.023149 201.535874 
L 106.469575 202.85809 
L 106.916 205.249895 
L 107.362426 205.925363 
L 108.255277 203.428613 
L 108.701703 203.737083 
L 109.148128 204.547081 
L 109.594554 203.825038 
L 110.487405 199.014185 
L 110.93383 199.273636 
L 111.380256 201.389913 
L 111.826681 202.609863 
L 112.273107 201.696328 
L 112.719532 200.293579 
L 113.612383 199.838435 
L 114.058809 197.978245 
L 114.505234 195.371683 
L 114.95166 195.166919 
L 115.398085 198.602836 
L 115.844511 203.192736 
L 116.290936 205.796873 
L 116.737362 206.148244 
L 117.183787 206.081904 
L 117.630213 206.132387 
L 118.076638 204.808317 
L 118.523064 201.701296 
L 118.969489 199.684962 
L 119.415915 202.274972 
L 120.308766 214.855491 
L 120.755191 215.143519 
L 121.201617 209.583244 
L 121.648042 201.885933 
L 122.094468 196.239886 
L 122.540893 194.664436 
L 122.987319 196.592312 
L 123.88017 203.43322 
L 124.326595 205.562768 
L 124.773021 205.620122 
L 125.665872 200.926334 
L 126.112297 200.895999 
L 126.558723 204.333566 
L 127.005148 208.958748 
L 127.451574 211.709011 
L 127.897999 211.740005 
L 128.790851 208.703719 
L 129.237276 206.814898 
L 130.576553 199.70237 
L 131.022978 197.99234 
L 131.469404 197.101159 
L 131.915829 197.745165 
L 133.255106 204.142037 
L 133.701531 204.956211 
L 134.147957 206.959901 
L 134.594382 210.435544 
L 135.040808 212.802072 
L 135.487233 211.51592 
L 136.380084 203.354891 
L 136.82651 201.440367 
L 137.272935 200.903174 
L 137.719361 200.182964 
L 138.165786 198.494621 
L 139.058637 194.116882 
L 139.505063 194.47998 
L 139.951488 198.107104 
L 140.397914 203.040613 
L 140.844339 205.184571 
L 141.290765 202.349487 
L 141.73719 197.348293 
L 142.183616 195.87627 
L 142.630041 200.664284 
L 143.076467 208.1827 
L 143.522892 211.889375 
L 143.969318 208.806665 
L 144.415743 202.34987 
L 144.862169 198.523243 
L 145.308594 199.886685 
L 145.75502 203.568067 
L 146.201445 204.763978 
L 146.647871 201.733087 
L 147.094296 197.36662 
L 147.540722 196.091856 
L 147.987148 199.454301 
L 148.433573 204.834015 
L 148.879999 208.345091 
L 149.326424 208.638938 
L 149.77285 207.63972 
L 150.219275 207.914235 
L 150.665701 210.13082 
L 151.558552 216.30203 
L 152.004977 218.266738 
L 152.451403 217.693015 
L 152.897828 213.29953 
L 153.790679 198.897181 
L 154.237105 195.208284 
L 154.68353 195.005528 
L 155.129956 195.511615 
L 156.022807 193.398999 
L 156.469232 195.333399 
L 157.362083 206.661315 
L 157.808509 208.848736 
L 158.254934 207.044605 
L 158.70136 203.976121 
L 159.147785 202.421852 
L 159.594211 203.190639 
L 160.487062 207.442597 
L 160.933487 207.190034 
L 161.379913 203.089008 
L 162.272764 188.164147 
L 162.719189 184.496276 
L 163.165615 186.835857 
L 163.61204 194.216941 
L 164.504891 211.372766 
L 164.951317 216.23021 
L 165.397742 217.949621 
L 165.844168 217.301785 
L 166.290593 215.259287 
L 167.62987 206.284696 
L 168.076296 205.173156 
L 168.522721 205.838954 
L 168.969147 205.828525 
L 169.415572 202.82207 
L 169.861998 197.976755 
L 170.308423 195.255502 
L 170.754849 197.257417 
L 171.6477 207.450776 
L 172.094125 209.012092 
L 172.540551 207.209293 
L 172.986976 204.046737 
L 173.433402 201.802284 
L 173.879827 201.622056 
L 174.326253 203.230394 
L 174.772678 205.493398 
L 175.219104 207.083116 
L 175.665529 207.049029 
L 176.111955 205.400341 
L 176.55838 203.152484 
L 177.004806 201.501073 
L 177.451231 200.860983 
L 177.897657 200.499376 
L 178.344082 198.983337 
L 179.683359 188.685869 
L 180.129784 188.899331 
L 181.022635 192.426384 
L 181.915486 194.806 
L 182.361912 195.589174 
L 182.808337 194.945011 
L 183.254763 193.464542 
L 183.701188 193.667609 
L 184.147614 197.289509 
L 185.040465 207.056838 
L 185.48689 208.394794 
L 185.933316 208.680637 
L 186.379742 210.3469 
L 186.826167 213.200689 
L 187.272593 214.615459 
L 187.719018 212.919386 
L 188.165444 209.814443 
L 188.611869 208.611438 
L 189.50472 211.639205 
L 189.951146 209.741062 
L 190.397571 204.928201 
L 190.843997 201.332283 
L 191.290422 202.478394 
L 192.183273 212.315877 
L 192.629699 214.068765 
L 193.076124 214.208243 
L 193.52255 216.269547 
L 194.861826 230.949608 
L 195.308252 230.19761 
L 195.754677 228.101023 
L 196.201103 228.350586 
L 197.540379 238.201911 
L 197.986805 238.428372 
L 198.43323 238.336214 
L 198.879656 237.387005 
L 199.326081 232.076081 
L 199.772507 219.798846 
L 201.111783 172.524871 
L 202.004634 153.808702 
L 202.45106 147.027449 
L 202.897485 143.228471 
L 203.343911 141.498697 
L 203.790336 138.986866 
L 204.683187 129.14063 
L 205.129613 127.283256 
L 205.576038 130.710644 
L 206.46889 148.29523 
L 207.808166 177.495821 
L 209.147443 221.666454 
L 209.593868 230.616225 
L 210.486719 239.636017 
L 210.933145 243.641355 
L 211.37957 245.757325 
L 211.825996 244.13094 
L 212.718847 236.245367 
L 213.165272 235.529312 
L 213.611698 236.932965 
L 214.058123 237.938222 
L 214.504549 237.11674 
L 214.950974 235.355807 
L 215.3974 234.247432 
L 215.843825 233.712894 
L 216.290251 231.84138 
L 216.736676 227.297437 
L 217.183102 221.489794 
L 217.629527 217.655482 
L 218.075953 217.477021 
L 218.522378 219.177011 
L 218.968804 219.796259 
L 219.415229 218.978268 
L 219.861655 219.120996 
L 220.30808 221.711184 
L 220.754506 225.096504 
L 221.200931 226.54538 
L 221.647357 225.376209 
L 222.093782 223.347434 
L 222.540208 222.728098 
L 222.986633 224.539747 
L 223.879484 231.329461 
L 224.32591 232.487299 
L 224.772335 230.843866 
L 225.218761 227.037021 
L 226.111612 215.782293 
L 226.558038 207.79384 
L 228.34374 167.171487 
L 228.790165 154.89976 
L 229.236591 136.172544 
L 230.575867 63.371176 
L 231.022293 55.86063 
L 231.468718 62.99556 
L 231.915144 80.789911 
L 234.147271 189.024897 
L 235.040122 228.21458 
L 235.486548 244.011989 
L 235.932973 255.681731 
L 236.379399 263.737594 
L 236.825824 269.323938 
L 237.27225 272.716933 
L 237.718675 273.254819 
L 238.165101 270.948464 
L 239.057952 264.704097 
L 239.950803 261.599351 
L 240.397228 259.159549 
L 241.290079 252.545548 
L 241.736505 248.622283 
L 242.18293 243.304934 
L 243.075781 227.451283 
L 243.522207 219.420246 
L 243.968632 213.569915 
L 244.415058 210.223307 
L 244.861484 208.523188 
L 245.754335 206.356059 
L 246.20076 204.716637 
L 246.647186 201.44898 
L 247.093611 195.656855 
L 247.540037 188.375449 
L 247.986462 182.919125 
L 248.432888 182.211435 
L 249.325739 188.558797 
L 249.772164 187.656752 
L 250.665015 179.15579 
L 251.111441 178.443492 
L 252.004292 182.533105 
L 252.450717 182.3312 
L 252.897143 181.003788 
L 253.343568 181.358281 
L 253.789994 184.818911 
L 254.682845 194.12525 
L 255.12927 196.056182 
L 255.575696 196.124107 
L 256.022121 195.081484 
L 256.914972 192.196195 
L 257.361398 192.736319 
L 257.807823 195.745547 
L 258.254249 199.968326 
L 258.700674 202.942022 
L 259.1471 203.233855 
L 259.593525 201.940577 
L 260.039951 201.744495 
L 260.486376 204.383803 
L 261.379227 212.538198 
L 261.825653 212.285554 
L 262.272078 207.918654 
L 262.718504 202.260936 
L 263.164929 199.11095 
L 263.611355 200.074511 
L 265.843483 217.490793 
L 266.289908 218.336018 
L 266.736334 215.993917 
L 267.629185 208.520004 
L 268.07561 207.511927 
L 268.522036 208.15677 
L 269.414887 210.761106 
L 269.861312 211.309658 
L 270.307738 209.990466 
L 271.200589 204.263725 
L 271.647014 203.800704 
L 272.09344 205.210077 
L 272.539865 205.864105 
L 272.986291 203.781502 
L 273.432716 200.170844 
L 273.879142 198.314205 
L 274.325567 199.849192 
L 274.771993 203.03852 
L 275.218418 205.00286 
L 275.664844 204.740833 
L 276.111269 203.501115 
L 276.557695 202.90783 
L 277.00412 203.134786 
L 277.450546 202.736061 
L 277.896971 200.507096 
L 278.343397 197.605588 
L 278.789822 196.96759 
L 279.236248 200.008619 
L 279.682673 204.589163 
L 280.129099 207.101771 
L 280.575524 206.278212 
L 281.02195 204.130628 
L 281.468375 203.259771 
L 281.914801 204.201013 
L 282.361226 205.721741 
L 282.807652 206.73416 
L 283.254077 206.90995 
L 283.700503 205.876249 
L 284.146929 203.204622 
L 284.593354 199.587998 
L 285.03978 197.003509 
L 285.486205 196.993796 
L 285.932631 199.33163 
L 287.271907 209.597436 
L 287.718333 209.705913 
L 288.164758 205.44652 
L 289.057609 192.868032 
L 289.504035 191.438731 
L 289.95046 193.446296 
L 291.736162 204.985832 
L 292.182588 205.289041 
L 292.629013 202.55465 
L 293.075439 198.764393 
L 293.521864 196.920213 
L 293.96829 197.846213 
L 295.307566 204.344984 
L 296.200417 210.994801 
L 296.646843 211.661517 
L 297.093268 209.134381 
L 297.539694 205.303766 
L 297.986119 202.65722 
L 298.432545 202.24513 
L 298.87897 203.616558 
L 300.218247 210.354292 
L 300.664672 211.322881 
L 301.111098 211.451067 
L 301.557523 211.287597 
L 302.003949 210.566839 
L 302.450374 208.308229 
L 303.343226 201.689261 
L 303.789651 201.196415 
L 305.128928 206.207538 
L 305.575353 205.739021 
L 306.021779 203.693656 
L 306.91463 198.036016 
L 307.361055 197.966454 
L 307.807481 200.494274 
L 308.253906 203.718177 
L 308.700332 205.96017 
L 309.146757 207.004419 
L 309.593183 206.79559 
L 310.039608 204.486004 
L 311.378885 189.791254 
L 311.82531 188.351548 
L 312.271736 189.071794 
L 312.718161 190.884199 
L 313.164587 194.096539 
L 313.611012 199.944303 
L 314.503863 214.71667 
L 314.950289 216.105549 
L 315.396714 211.471767 
L 315.84314 204.967509 
L 316.289565 202.651251 
L 316.735991 207.21913 
L 317.182416 214.863974 
L 317.628842 218.208155 
L 318.075267 213.538971 
L 318.968118 197.119552 
L 319.414544 194.234434 
L 319.860969 194.342608 
L 320.307395 196.187781 
L 321.200246 203.615334 
L 321.646671 204.996005 
L 322.093097 202.890499 
L 322.539523 199.989426 
L 322.985948 199.701132 
L 323.878799 204.156786 
L 324.325225 203.782766 
L 324.77165 202.841311 
L 325.218076 204.655303 
L 326.110927 213.139689 
L 326.557352 212.570226 
L 327.450203 203.586847 
L 327.896629 201.157536 
L 328.343054 201.135824 
L 328.78948 202.615123 
L 330.128756 210.158604 
L 330.575182 209.841049 
L 331.021607 206.147893 
L 331.468033 201.149757 
L 331.914458 198.591079 
L 332.360884 200.139118 
L 332.807309 203.537349 
L 333.253735 205.253322 
L 333.70016 204.278718 
L 334.146586 202.410552 
L 334.593011 201.368443 
L 335.039437 200.839549 
L 335.485862 199.538886 
L 335.932288 197.470319 
L 336.378713 196.460375 
L 336.825139 198.198253 
L 337.71799 205.111333 
L 338.164415 205.449094 
L 339.057266 201.413261 
L 339.503692 200.389456 
L 339.950117 200.234425 
L 340.396543 200.345817 
L 340.842968 200.803283 
L 341.289394 202.155041 
L 342.182245 206.581796 
L 342.628671 206.807549 
L 343.075096 203.943118 
L 343.521522 198.953041 
L 343.967947 195.244965 
L 344.414373 196.403477 
L 345.307224 209.235889 
L 345.753649 211.653339 
L 346.200075 209.36341 
L 346.6465 206.336239 
L 347.092926 206.030602 
L 347.985777 209.386547 
L 348.432202 209.297642 
L 348.878628 209.050724 
L 349.325053 209.831933 
L 349.771479 210.879262 
L 350.217904 210.845636 
L 350.66433 209.679327 
L 351.110755 208.103076 
L 351.557181 205.868147 
L 352.003606 201.836752 
L 352.896457 190.096635 
L 353.342883 186.617334 
L 353.789308 186.409554 
L 354.235734 188.699742 
L 355.57501 197.959859 
L 356.467861 204.681576 
L 357.360712 211.540469 
L 357.807138 213.269458 
L 358.253563 213.560007 
L 358.699989 212.658796 
L 359.146414 211.381658 
L 359.59284 210.817627 
L 360.039265 211.234716 
L 360.485691 211.386076 
L 360.932116 209.293608 
L 361.378542 204.162319 
L 361.824968 197.722082 
L 362.271393 193.254296 
L 362.717819 192.900393 
L 363.164244 196.168526 
L 364.057095 205.781341 
L 364.503521 208.912395 
L 364.949946 209.149865 
L 365.396372 206.20142 
L 365.842797 201.870817 
L 366.289223 199.22837 
L 366.735648 200.061619 
L 367.182074 203.140334 
L 367.628499 205.314203 
L 368.074925 204.553213 
L 368.52135 201.811491 
L 368.967776 199.767365 
L 369.414201 200.112178 
L 369.860627 202.583782 
L 370.753478 209.079213 
L 371.199903 209.910596 
L 371.646329 207.329619 
L 372.53918 199.014514 
L 372.985605 198.52891 
L 373.432031 200.006852 
L 373.878456 200.978332 
L 374.771307 200.537247 
L 375.217733 200.761944 
L 375.664158 200.178769 
L 376.110584 198.751823 
L 376.557009 199.353441 
L 377.003435 204.182365 
L 377.44986 210.315772 
L 377.896286 211.790446 
L 378.789137 202.10122 
L 379.235562 203.673685 
L 379.681988 210.951627 
L 380.128413 216.402899 
L 380.574839 214.811372 
L 381.46769 202.29352 
L 381.914116 198.60861 
L 382.806967 193.768801 
L 383.253392 194.10893 
L 383.699818 198.1909 
L 384.146243 203.410748 
L 384.592669 205.180625 
L 385.039094 201.918677 
L 385.48552 196.844625 
L 385.931945 194.302373 
L 386.378371 195.433906 
L 387.717647 204.096444 
L 388.610498 211.270658 
L 389.056924 213.105975 
L 389.503349 213.186709 
L 390.3962 212.549415 
L 390.842626 210.112385 
L 391.289051 203.45241 
L 391.735477 194.458997 
L 392.181902 188.998062 
L 392.628328 191.525259 
L 393.521179 208.810172 
L 393.967604 212.690821 
L 394.41403 212.542386 
L 395.306881 210.470576 
L 395.753306 208.115698 
L 396.646157 197.638611 
L 397.092583 195.217963 
L 397.539008 198.629624 
L 397.985434 205.743429 
L 398.431859 210.379583 
L 398.878285 207.926441 
L 399.771136 194.082711 
L 400.217562 194.129369 
L 401.110413 203.089089 
L 401.556838 203.628733 
L 402.003264 202.538259 
L 402.449689 203.050411 
L 402.896115 204.787314 
L 403.34254 204.653367 
L 404.235391 198.956376 
L 404.681817 199.804298 
L 405.574668 209.631686 
L 406.021093 212.156235 
L 406.467519 210.600594 
L 407.36037 201.034641 
L 407.806795 198.447337 
L 408.253221 199.449269 
L 409.146072 206.638268 
L 409.592497 208.802822 
L 410.038923 208.878704 
L 410.485348 206.791864 
L 411.378199 198.983923 
L 411.824625 197.331578 
L 412.27105 198.85371 
L 412.717476 201.591604 
L 413.163901 202.456356 
L 414.056752 198.37908 
L 414.503178 198.987332 
L 414.949603 202.080642 
L 414.949603 202.080642 
" clip-path="url(#p3b9adb11ff)" style="fill: none; stroke: #1f77b4; stroke-width: 1.5; stroke-linecap: square"/>
   </g>
   <g id="patch_3">
    <path d="M 57.6 307.584 
L 57.6 41.472 
" style="fill: none; stroke: #000000; stroke-width: 0.8; stroke-linejoin: miter; stroke-linecap: square"/>
   </g>
   <g id="patch_4">
    <path d="M 414.72 307.584 
L 414.72 41.472 
" style="fill: none; stroke: #000000; stroke-width: 0.8; stroke-linejoin: miter; stroke-linecap: square"/>
   </g>
   <g id="patch_5">
    <path d="M 57.6 307.584 
L 414.72 307.584 
" style="fill: none; stroke: #000000; stroke-width: 0.8; stroke-linejoin: miter; stroke-linecap: square"/>
   </g>
   <g id="patch_6">
    <path d="M 57.6 41.472 
L 414.72 41.472 
" style="fill: none; stroke: #000000; stroke-width: 0.8; stroke-linejoin: miter; stroke-linecap: square"/>
   </g>
  </g>
 </g>
 <defs>
  <clipPath id="p3b9adb11ff">
   <rect x="57.6" y="41.472" width="357.12" height="266.112"/>
  </clipPath>
 </defs>
</svg>
