<?xml version="1.0" encoding="utf-8" standalone="no"?>
<!DOCTYPE svg PUBLIC "-//W3C//DTD SVG 1.1//EN"
  "http://www.w3.org/Graphics/SVG/1.1/DTD/svg11.dtd">
<svg xmlns:xlink="http://www.w3.org/1999/xlink" width="357.12pt" height="266.112pt" viewBox="0 0 357.12 266.112" xmlns="http://www.w3.org/2000/svg" version="1.1">
 <metadata>
  <rdf:RDF xmlns:dc="http://purl.org/dc/elements/1.1/" xmlns:cc="http://creativecommons.org/ns#" xmlns:rdf="http://www.w3.org/1999/02/22-rdf-syntax-ns#">
   <cc:Work>
    <dc:type rdf:resource="http://purl.org/dc/dcmitype/StillImage"/>
    <dc:date>2026-01-07T14:16:35.319930</dc:date>
    <dc:format>image/svg+xml</dc:format>
    <dc:creator>
     <cc:Agent>
      <dc:title>Matplotlib v3.10.7, https://matplotlib.org/</dc:title>
     </cc:Agent>
    </dc:creator>
   </cc:Work>
  </rdf:RDF>
 </metadata>
 <defs>
  <style type="text/css">*{stroke-linejoin: round; stroke-linecap: butt}</style>
 </defs>
 <g id="figure_1">
  <g id="patch_1">
   <path d="M 0 266.112 
L 357.12 266.112 
L 357.12 0 
L 0 0 
L 0 266.112 
z
" style="fill: none"/>
  </g>
  <g id="axes_1">
   <g id="line2d_1">
    <path d="M -0.275504 157.285951 
L 0.081637 156.332326 
L 0.438777 157.275306 
L 0.795918 158.723638 
L 1.153058 160.8192 
L 1.867339 168.260804 
L 2.224479 170.125651 
L 2.58162 167.948624 
L 3.2959 156.51767 
L 3.653041 153.369885 
L 4.010181 153.781206 
L 4.367322 155.553112 
L 4.724462 155.460883 
L 5.438743 149.725868 
L 5.795883 150.09824 
L 6.867305 161.385876 
L 7.224445 162.956476 
L 7.581585 165.592892 
L 8.295866 172.609112 
L 8.653007 171.409563 
L 9.367287 162.364588 
L 9.724428 161.50346 
L 10.438709 165.193694 
L 10.795849 165.039774 
L 11.152989 164.551311 
L 11.51013 165.769907 
L 11.86727 167.905439 
L 12.224411 167.982417 
L 13.295832 159.009265 
L 13.652972 159.054714 
L 14.010113 158.330466 
L 14.367253 156.095031 
L 14.724394 155.112432 
L 15.081534 158.029058 
L 15.438674 163.238875 
L 15.795815 166.088706 
L 16.152955 164.264144 
L 16.510096 160.436305 
L 16.867236 158.925521 
L 17.224376 160.993285 
L 17.581517 164.418428 
L 17.938657 166.755281 
L 18.295798 167.613327 
L 19.010078 168.475118 
L 19.367219 168.836221 
L 19.724359 168.215081 
L 20.0815 165.968204 
L 20.79578 159.066174 
L 21.152921 157.729316 
L 21.510061 158.660785 
L 21.867202 160.151867 
L 22.224342 160.396091 
L 22.581483 159.632851 
L 22.938623 159.545999 
L 23.295763 160.500638 
L 23.652904 160.706383 
L 24.010044 158.805749 
L 24.367185 156.028239 
L 24.724325 154.624935 
L 25.081465 155.109562 
L 25.438606 156.499446 
L 25.795746 158.705993 
L 26.867167 170.954445 
L 27.224308 169.300693 
L 28.295729 154.171787 
L 28.652869 153.049833 
L 29.01001 153.878887 
L 29.36715 156.245531 
L 30.081431 162.308818 
L 30.438572 163.339742 
L 30.795712 163.059086 
L 31.152852 163.1023 
L 31.867133 164.819296 
L 32.224274 164.179768 
L 32.581414 162.59258 
L 32.938554 161.528646 
L 33.295695 162.124922 
L 33.652835 164.62139 
L 34.367116 171.723083 
L 34.724256 173.100762 
L 35.081397 171.701721 
L 35.795678 164.6864 
L 36.152818 163.126578 
L 36.509958 164.168244 
L 36.867099 165.954735 
L 37.224239 165.753433 
L 38.295661 156.568191 
L 38.652801 156.499453 
L 39.009941 158.041162 
L 39.724222 161.89487 
L 40.081363 162.439251 
L 40.438503 161.232468 
L 41.152784 156.785506 
L 41.509924 156.380996 
L 42.224205 158.054892 
L 42.581345 158.005898 
L 42.938486 157.541919 
L 43.295626 157.761176 
L 43.652767 159.740502 
L 44.367047 168.107432 
L 44.724188 169.502881 
L 45.081328 166.009901 
L 45.438469 160.410378 
L 45.795609 158.397213 
L 46.50989 166.770169 
L 46.86703 166.129483 
L 47.938452 146.975798 
L 48.295592 145.391085 
L 48.652732 145.27014 
L 49.009873 147.360134 
L 49.367013 153.579942 
L 50.081294 170.757969 
L 50.438434 173.247667 
L 51.152715 169.269867 
L 51.509856 169.758568 
L 51.866996 171.718167 
L 52.224137 172.819916 
L 52.581277 172.183527 
L 52.938417 170.095741 
L 54.009839 161.185906 
L 54.366979 161.905256 
L 55.08126 167.826907 
L 55.4384 168.771265 
L 55.795541 167.819871 
L 56.866962 163.045347 
L 57.224102 162.613069 
L 57.581243 164.518953 
L 57.938383 168.109358 
L 58.295523 170.029741 
L 58.652664 167.1281 
L 59.366945 154.453116 
L 59.724085 153.487487 
L 60.795506 164.600694 
L 61.152647 165.990995 
L 61.509787 165.457358 
L 61.866928 162.556711 
L 62.224068 158.265625 
L 62.581208 155.505317 
L 62.938349 156.588503 
L 63.295489 160.365071 
L 63.65263 162.70297 
L 64.00977 160.341883 
L 64.724051 150.321776 
L 65.081191 151.781149 
L 65.795472 163.124268 
L 66.152612 164.08625 
L 66.509753 160.686387 
L 66.866893 155.950466 
L 67.224034 152.951442 
L 67.581174 152.594274 
L 67.938315 153.336977 
L 68.295455 152.999422 
L 69.009736 149.808473 
L 69.366876 150.766372 
L 70.438297 159.495778 
L 71.509719 166.590952 
L 71.866859 165.970355 
L 72.223999 161.575952 
L 72.93828 151.101133 
L 73.295421 150.482842 
L 73.652561 153.068861 
L 74.366842 161.493829 
L 74.723982 163.649783 
L 75.081123 162.664276 
L 75.438263 160.474317 
L 75.795404 161.158831 
L 76.152544 166.656811 
L 76.509684 174.33974 
L 76.866825 179.564081 
L 77.223965 180.074742 
L 77.581106 177.715757 
L 77.938246 176.401278 
L 78.295386 178.626504 
L 79.009667 187.689288 
L 79.366808 188.397219 
L 80.081088 184.342256 
L 80.438229 185.986028 
L 80.795369 190.003022 
L 81.15251 192.67955 
L 81.50965 192.194757 
L 81.86679 190.791233 
L 82.223931 191.955335 
L 82.938212 201.189079 
L 83.295352 203.140211 
L 83.652493 200.874516 
L 84.009633 194.87684 
L 84.366773 185.744981 
L 85.081054 158.814854 
L 87.938177 26.573278 
L 88.295318 23.427027 
L 88.652458 36.761458 
L 90.795301 185.222322 
L 91.152441 201.213672 
L 91.509582 210.519443 
L 93.295284 232.893317 
L 93.652424 229.832975 
L 94.723845 200.384797 
L 95.080986 197.527102 
L 95.438126 196.20652 
L 95.795266 193.120324 
L 96.509547 185.366008 
L 97.223828 180.317893 
L 99.366671 157.463072 
L 99.723811 155.495467 
L 100.080951 154.998316 
L 100.795232 154.834728 
L 101.152373 155.012338 
L 102.580934 157.147508 
L 102.938075 156.653607 
L 103.295215 153.740267 
L 104.009496 143.260116 
L 104.366636 142.177174 
L 105.080917 148.375293 
L 105.438057 148.120257 
L 105.795198 145.612805 
L 106.152338 144.938126 
L 106.509479 148.060908 
L 107.22376 156.604854 
L 107.5809 157.857749 
L 107.93804 158.525548 
L 108.652321 162.577382 
L 109.009462 162.313267 
L 109.366602 158.572737 
L 109.723742 153.62539 
L 110.080883 150.844034 
L 110.438023 151.51174 
L 110.795164 153.939692 
L 111.152304 155.431098 
L 111.866585 154.902471 
L 112.223725 156.745274 
L 112.580866 159.874413 
L 112.938006 161.328669 
L 113.652287 158.398349 
L 114.009427 160.298547 
L 114.723708 170.530477 
L 115.080849 171.076119 
L 115.795129 164.505431 
L 116.15227 164.980249 
L 117.223691 178.476892 
L 117.580831 179.927419 
L 117.937972 177.790191 
L 118.652253 166.026887 
L 119.009393 163.20304 
L 119.366533 165.290295 
L 119.723674 169.602928 
L 120.080814 171.813401 
L 120.437955 170.163303 
L 120.795095 166.889199 
L 121.152235 165.26151 
L 121.509376 165.669903 
L 121.866516 165.693834 
L 122.580797 161.746286 
L 122.937938 161.698733 
L 123.652218 165.62093 
L 124.009359 165.024693 
L 125.08078 156.760055 
L 125.43792 156.248396 
L 125.795061 156.632503 
L 126.152201 157.230424 
L 126.509342 157.558436 
L 126.866482 157.25251 
L 127.580763 155.608193 
L 127.937903 156.191464 
L 128.295044 158.001737 
L 128.652184 159.075015 
L 129.009324 157.286791 
L 129.723605 150.298852 
L 130.080746 152.282952 
L 130.795027 165.118223 
L 131.152167 167.763041 
L 131.509307 166.872746 
L 131.866448 165.605861 
L 132.223588 166.024026 
L 132.580729 167.221826 
L 132.937869 167.078999 
L 133.295009 164.943526 
L 134.00929 159.930516 
L 135.437852 154.515832 
L 135.794992 153.77945 
L 136.152133 154.455155 
L 136.509273 157.409155 
L 137.223554 166.234798 
L 137.580694 167.772643 
L 137.937835 166.769811 
L 138.294975 165.019808 
L 138.652116 164.225028 
L 139.366396 165.029614 
L 139.723537 164.12995 
L 140.080677 162.538244 
L 140.437818 162.784019 
L 140.794958 166.57297 
L 141.152098 172.036441 
L 141.509239 174.638238 
L 141.866379 171.377198 
L 142.58066 157.888223 
L 142.9378 157.048112 
L 143.652081 163.167685 
L 144.009222 161.965231 
L 144.366362 158.8004 
L 144.723502 157.942438 
L 145.437783 163.041896 
L 145.794924 162.966308 
L 146.152064 160.832537 
L 146.509205 159.391565 
L 147.223485 160.168393 
L 147.937766 158.287907 
L 148.294907 160.896295 
L 149.009187 171.166255 
L 149.366328 170.334047 
L 150.080609 161.587202 
L 150.437749 160.49764 
L 150.794889 160.28508 
L 151.15203 158.342722 
L 151.50917 155.270987 
L 151.866311 153.871841 
L 152.223451 155.469679 
L 152.937732 161.71889 
L 153.652013 166.141731 
L 154.009153 167.112447 
L 154.366294 165.182597 
L 155.437715 150.573671 
L 155.794855 152.592521 
L 156.866276 168.573382 
L 157.223417 168.825664 
L 158.294838 160.80731 
L 158.651978 161.267808 
L 159.7234 168.000182 
L 160.08054 169.324879 
L 160.43768 169.608403 
L 160.794821 167.937656 
L 161.866242 155.866528 
L 162.223383 156.126178 
L 162.937663 161.043258 
L 163.294804 162.502144 
L 163.651944 163.480127 
L 164.009085 164.106071 
L 164.366225 163.245049 
L 165.080506 156.449331 
L 165.437646 155.38876 
L 165.794787 158.331972 
L 166.151927 162.71666 
L 166.509067 164.376379 
L 167.223348 160.050015 
L 167.580489 161.914713 
L 168.294769 171.04419 
L 168.65191 169.39498 
L 169.366191 160.301627 
L 169.723331 159.463043 
L 170.080472 158.928416 
L 170.794752 153.072061 
L 171.151893 153.426415 
L 172.223314 168.496498 
L 172.580454 168.551376 
L 173.294735 163.4961 
L 174.009016 160.41471 
L 174.366156 157.197308 
L 175.080437 149.213367 
L 175.437578 150.394212 
L 176.866139 172.942425 
L 177.22328 174.648686 
L 177.58042 174.628793 
L 177.937561 171.830587 
L 178.651841 162.477025 
L 179.008982 160.317846 
L 179.366122 159.780625 
L 179.723263 159.690824 
L 180.080403 160.265145 
L 180.437543 162.131258 
L 181.151824 166.672736 
L 181.508965 167.74346 
L 181.866105 167.714779 
L 182.223245 165.223156 
L 183.294667 147.439104 
L 183.651807 152.266343 
L 184.366088 171.408678 
L 184.723228 171.21838 
L 185.437509 157.648369 
L 185.79465 156.228048 
L 186.15179 158.03949 
L 186.50893 158.611414 
L 186.866071 157.249142 
L 187.223211 157.313758 
L 187.937492 163.522319 
L 188.294632 161.682238 
L 188.651773 155.803653 
L 189.008913 152.1952 
L 189.366054 155.500247 
L 189.723194 163.088447 
L 190.080334 168.225318 
L 190.437475 167.780047 
L 190.794615 164.750041 
L 191.151756 163.525442 
L 191.866036 166.65217 
L 192.223177 166.838374 
L 192.937458 165.02663 
L 193.294598 164.420949 
L 193.651739 163.367465 
L 194.366019 159.58969 
L 194.72316 158.646857 
L 195.0803 159.310733 
L 195.794581 163.622773 
L 196.508862 167.390201 
L 196.866002 167.569025 
L 197.223143 165.565505 
L 198.294564 154.349651 
L 198.651704 155.057805 
L 199.008845 158.626711 
L 199.723125 169.153828 
L 200.080266 172.471486 
L 200.437406 171.289256 
L 200.794547 165.238479 
L 201.508828 150.690574 
L 201.865968 147.467841 
L 202.223108 147.075549 
L 202.580249 148.948372 
L 202.937389 152.971816 
L 204.365951 174.512122 
L 204.723091 174.171439 
L 205.080232 170.435074 
L 206.151653 152.446596 
L 206.508793 151.031582 
L 206.865934 153.198998 
L 207.223074 157.786171 
L 208.294495 174.354752 
L 208.651636 174.592688 
L 209.365917 168.473184 
L 209.723057 168.003653 
L 210.080197 169.990947 
L 210.437338 170.705413 
L 210.794478 166.064222 
L 211.508759 147.642154 
L 211.865899 145.112649 
L 212.22304 149.123358 
L 212.937321 161.325538 
L 213.651601 168.382104 
L 214.008742 170.421134 
L 214.365882 171.284824 
L 214.723023 171.120476 
L 215.080163 170.373378 
L 215.437303 168.938925 
L 215.794444 166.051325 
L 216.508725 157.514014 
L 216.865865 155.37305 
L 217.223006 155.351231 
L 217.937286 156.589304 
L 218.294427 156.888426 
L 218.651567 156.78785 
L 219.008708 155.204334 
L 219.722988 147.727881 
L 220.080129 147.080392 
L 220.437269 150.975763 
L 220.79441 156.845697 
L 221.15155 160.696069 
L 221.50869 160.748372 
L 222.222971 155.733077 
L 222.580112 155.365555 
L 222.937252 158.313404 
L 223.294393 164.879904 
L 224.008673 183.242897 
L 224.365814 188.141143 
L 224.722954 186.714944 
L 225.794375 170.349653 
L 226.151516 168.163212 
L 227.580077 163.016994 
L 227.937218 160.440712 
L 229.008639 148.583152 
L 229.365779 149.695251 
L 230.08006 155.852261 
L 230.437201 156.165495 
L 230.794341 156.144922 
L 231.151482 158.005084 
L 231.508622 160.999748 
L 231.865762 162.649083 
L 232.222903 162.672855 
L 232.580043 163.796544 
L 233.294324 170.721182 
L 233.651464 166.79754 
L 234.365745 140.27301 
L 234.722886 136.33152 
L 235.080026 146.80214 
L 235.794307 176.601341 
L 236.151447 176.209754 
L 236.865728 157.046731 
L 237.222868 153.889721 
L 237.580009 156.364011 
L 237.937149 159.810903 
L 238.29429 161.603287 
L 238.65143 162.609018 
L 239.365711 165.38283 
L 240.079992 166.731924 
L 240.437132 168.783967 
L 241.151413 174.153903 
L 241.865694 175.775893 
L 242.222834 177.375883 
L 242.579975 178.449509 
L 242.937115 175.695864 
L 243.651396 161.353537 
L 244.008536 160.207291 
L 244.722817 171.702101 
L 245.079957 171.247096 
L 245.437098 163.025659 
L 246.151379 144.068322 
L 246.508519 141.189099 
L 246.86566 141.607598 
L 247.57994 144.660305 
L 248.294221 149.252539 
L 249.722783 162.108742 
L 250.437064 163.678801 
L 251.151344 168.250304 
L 251.508485 167.809552 
L 251.865625 163.137005 
L 252.222766 156.314201 
L 252.579906 151.691761 
L 252.937046 152.69752 
L 254.008468 171.512645 
L 254.365608 170.573708 
L 255.079889 160.56882 
L 255.437029 158.241252 
L 255.79417 160.735175 
L 256.508451 173.158341 
L 256.865591 175.233842 
L 257.222731 172.660064 
L 257.579872 168.479753 
L 257.937012 166.166587 
L 258.651293 166.154464 
L 259.008433 164.071319 
L 259.365574 161.12065 
L 259.722714 159.63249 
L 260.436995 159.760242 
L 260.794135 159.253408 
L 261.151276 159.77382 
L 261.508416 162.332996 
L 262.222697 168.626935 
L 262.579838 169.755596 
L 262.936978 169.086676 
L 263.294118 166.075654 
L 264.36554 146.687353 
L 264.72268 146.737241 
L 265.07982 153.32363 
L 265.436961 162.219387 
L 265.794101 167.833775 
L 266.151242 168.386546 
L 266.508382 166.643168 
L 266.865522 165.76976 
L 267.222663 165.979754 
L 267.579803 165.642498 
L 268.294084 163.089355 
L 268.651224 162.802417 
L 269.008365 161.964535 
L 269.365505 158.622438 
L 270.079786 148.953691 
L 270.436927 148.226279 
L 270.794067 150.972089 
L 271.508348 158.361462 
L 271.865488 159.760439 
L 272.222629 160.418009 
L 272.579769 163.079155 
L 273.65119 182.587708 
L 274.008331 178.994576 
L 274.722611 157.234249 
L 275.079752 153.028225 
L 275.436892 157.179651 
L 275.794033 164.833837 
L 276.151173 169.1962 
L 276.508313 166.889085 
L 277.222594 152.379286 
L 277.579735 148.610837 
L 277.936875 149.268817 
L 279.365437 162.994349 
L 279.722577 162.958817 
L 280.079718 161.828566 
L 280.436858 161.151169 
L 280.793998 161.305668 
L 281.151139 161.826572 
L 281.508279 162.951535 
L 281.86542 165.451367 
L 282.5797 172.405084 
L 282.936841 173.424366 
L 283.293981 171.246371 
L 284.008262 162.298921 
L 284.365402 160.616704 
L 285.079683 163.082346 
L 285.436824 161.637637 
L 285.793964 158.070685 
L 286.151105 156.291489 
L 286.508245 159.224458 
L 286.865385 164.852978 
L 287.222526 167.631824 
L 287.579666 164.508476 
L 287.936807 158.447462 
L 288.293947 154.870533 
L 288.651087 155.960622 
L 289.722509 168.677379 
L 290.079649 168.6848 
L 290.436789 162.801828 
L 291.15107 144.826058 
L 291.508211 143.474949 
L 291.865351 148.75438 
L 292.579632 162.415435 
L 292.936772 165.405746 
L 293.651053 168.096354 
L 294.722474 175.64007 
L 295.079615 172.472671 
L 295.793896 157.852558 
L 296.151036 156.11525 
L 296.508176 160.525475 
L 296.865317 166.627342 
L 297.222457 169.478974 
L 297.579598 168.444771 
L 297.936738 166.927432 
L 298.293878 168.030138 
L 298.651019 171.276658 
L 299.008159 173.447524 
L 299.3653 171.974515 
L 300.07958 160.937374 
L 300.793861 150.451273 
L 301.151002 147.608528 
L 301.508142 146.976159 
L 301.865283 147.603209 
L 302.222423 147.708229 
L 302.579563 146.833728 
L 302.936704 146.907515 
L 303.293844 150.071953 
L 304.008125 159.168977 
L 304.365265 159.456146 
L 304.722406 158.748521 
L 305.079546 160.787012 
L 305.793827 169.828646 
L 306.150967 170.998847 
L 306.508108 170.388495 
L 306.865248 170.543805 
L 307.579529 173.67201 
L 307.936669 173.899943 
L 308.29381 172.860889 
L 308.65095 171.081486 
L 309.008091 168.149992 
L 309.722372 158.204744 
L 310.079512 155.668669 
L 310.436652 157.818501 
L 311.150933 167.680999 
L 311.508074 169.06076 
L 311.865214 167.274214 
L 312.579495 161.142682 
L 312.936635 159.378213 
L 313.293776 158.351565 
L 313.650916 156.773733 
L 314.722337 148.425811 
L 315.079478 149.467334 
L 315.436618 151.596992 
L 315.793758 152.171944 
L 316.150899 151.608831 
L 316.508039 153.680245 
L 317.579461 174.811492 
L 317.936601 175.742769 
L 318.293741 175.127823 
L 318.650882 174.904521 
L 319.008022 173.360576 
L 319.365163 168.637096 
L 319.722303 162.353109 
L 320.079443 158.02778 
L 320.436584 157.359241 
L 320.793724 159.545504 
L 321.508005 166.804448 
L 321.865145 168.924335 
L 322.222286 167.98308 
L 323.293707 157.609253 
L 323.650847 156.444008 
L 324.007988 156.954405 
L 324.365128 160.060453 
L 324.722269 164.744 
L 325.079409 166.645252 
L 325.43655 162.269575 
L 326.15083 148.224286 
L 326.507971 148.70628 
L 327.579392 161.606539 
L 327.936532 163.9202 
L 328.293673 164.213981 
L 328.650813 160.805649 
L 329.007954 154.826438 
L 329.365094 151.02869 
L 329.722234 153.569785 
L 330.793656 176.657191 
L 331.150796 178.309598 
L 331.507936 177.13602 
L 331.865077 174.388987 
L 332.579358 167.046614 
L 332.936498 165.125457 
L 333.293639 165.923672 
L 333.650779 167.901032 
L 334.007919 167.543064 
L 334.36506 162.951798 
L 334.7222 156.683584 
L 335.079341 153.465203 
L 335.436481 154.649195 
L 335.793621 156.553619 
L 336.150762 155.3154 
L 336.507902 151.985672 
L 336.865043 151.204798 
L 337.222183 155.331902 
L 337.579323 161.395553 
L 337.936464 164.235678 
L 338.293604 161.863813 
L 338.650745 157.155491 
L 339.007885 154.736102 
L 339.365025 157.077741 
L 340.436447 177.229569 
L 340.793587 178.435946 
L 341.150728 173.82139 
L 341.865008 157.448914 
L 342.222149 154.753742 
L 342.579289 158.747224 
L 342.93643 165.876307 
L 343.29357 169.372685 
L 343.65071 164.809934 
L 344.364991 146.294634 
L 344.722132 145.727773 
L 345.793553 162.954269 
L 346.150693 162.215392 
L 346.507834 160.043259 
L 346.864974 158.767457 
L 347.222114 158.788899 
L 347.579255 159.87955 
L 347.936395 162.218042 
L 348.650676 168.787093 
L 349.007817 170.21678 
L 349.364957 169.216199 
L 350.436378 160.129265 
L 350.793519 160.516738 
L 351.507799 165.590402 
L 351.86494 165.969318 
L 352.579221 162.648921 
L 353.293501 161.431685 
L 353.650642 159.489613 
L 354.007782 156.664398 
L 354.364923 155.402512 
L 354.722063 157.362649 
L 355.793484 171.606831 
L 356.150625 173.962047 
L 356.507765 173.286938 
L 356.864906 169.564411 
L 357.222046 164.244391 
L 357.222046 164.244391 
" clip-path="url(#p1c7122721a)" style="fill: none; stroke: #ffffff; stroke-width: 0.5; stroke-linecap: square"/>
   </g>
  </g>
 </g>
 <defs>
  <clipPath id="p1c7122721a">
   <rect x="0" y="-0" width="357.12" height="266.112"/>
  </clipPath>
 </defs>
</svg>
