<?xml version="1.0" encoding="utf-8" standalone="no"?>
<!DOCTYPE svg PUBLIC "-//W3C//DTD SVG 1.1//EN"
  "http://www.w3.org/Graphics/SVG/1.1/DTD/svg11.dtd">
<svg xmlns:xlink="http://www.w3.org/1999/xlink" width="460.8pt" height="345.6pt" viewBox="0 0 460.8 345.6" xmlns="http://www.w3.org/2000/svg" version="1.1">
 <metadata>
  <rdf:RDF xmlns:dc="http://purl.org/dc/elements/1.1/" xmlns:cc="http://creativecommons.org/ns#" xmlns:rdf="http://www.w3.org/1999/02/22-rdf-syntax-ns#">
   <cc:Work>
    <dc:type rdf:resource="http://purl.org/dc/dcmitype/StillImage"/>
    <dc:date>2026-01-10T23:44:36.164055</dc:date>
    <dc:format>image/svg+xml</dc:format>
    <dc:creator>
     <cc:Agent>
      <dc:title>Matplotlib v3.10.7, https://matplotlib.org/</dc:title>
     </cc:Agent>
    </dc:creator>
   </cc:Work>
  </rdf:RDF>
 </metadata>
 <defs>
  <style type="text/css">*{stroke-linejoin: round; stroke-linecap: butt}</style>
 </defs>
 <g id="figure_1">
  <g id="patch_1">
   <path d="M 0 345.6 
L 460.8 345.6 
L 460.8 0 
L 0 0 
z
" style="fill: #ffffff"/>
  </g>
  <g id="axes_1">
   <g id="patch_2">
    <path d="M 59.15 303.64 
L 443.7 303.64 
L 443.7 14.76 
L 59.15 14.76 
z
" style="fill: #ffffff"/>
   </g>
   <g id="matplotlib.axis_1">
    <g id="xtick_1">
     <g id="line2d_1">
      <defs>
       <path id="m0348d8a1f8" d="M 0 0 
L 0 3.5 
" style="stroke: #000000; stroke-width: 0.8"/>
      </defs>
      <g>
       <use xlink:href="#m0348d8a1f8" x="59.15" y="303.64" style="stroke: #000000; stroke-width: 0.8"/>
      </g>
     </g>
     <g id="text_1">
      <!-- 20 -->
      <g transform="translate(52.7875 318.238437) scale(0.1 -0.1)">
       <defs>
        <path id="DejaVuSans-32" d="M 1228 531 
L 3431 531 
L 3431 0 
L 469 0 
L 469 531 
Q 828 903 1448 1529 
Q 2069 2156 2228 2338 
Q 2531 2678 2651 2914 
Q 2772 3150 2772 3378 
Q 2772 3750 2511 3984 
Q 2250 4219 1831 4219 
Q 1534 4219 1204 4116 
Q 875 4013 500 3803 
L 500 4441 
Q 881 4594 1212 4672 
Q 1544 4750 1819 4750 
Q 2544 4750 2975 4387 
Q 3406 4025 3406 3419 
Q 3406 3131 3298 2873 
Q 3191 2616 2906 2266 
Q 2828 2175 2409 1742 
Q 1991 1309 1228 531 
z
" transform="scale(0.015625)"/>
        <path id="DejaVuSans-30" d="M 2034 4250 
Q 1547 4250 1301 3770 
Q 1056 3291 1056 2328 
Q 1056 1369 1301 889 
Q 1547 409 2034 409 
Q 2525 409 2770 889 
Q 3016 1369 3016 2328 
Q 3016 3291 2770 3770 
Q 2525 4250 2034 4250 
z
M 2034 4750 
Q 2819 4750 3233 4129 
Q 3647 3509 3647 2328 
Q 3647 1150 3233 529 
Q 2819 -91 2034 -91 
Q 1250 -91 836 529 
Q 422 1150 422 2328 
Q 422 3509 836 4129 
Q 1250 4750 2034 4750 
z
" transform="scale(0.015625)"/>
       </defs>
       <use xlink:href="#DejaVuSans-32"/>
       <use xlink:href="#DejaVuSans-30" transform="translate(63.623047 0)"/>
      </g>
     </g>
    </g>
    <g id="xtick_2">
     <g id="line2d_2">
      <g>
       <use xlink:href="#m0348d8a1f8" x="136.06" y="303.64" style="stroke: #000000; stroke-width: 0.8"/>
      </g>
     </g>
     <g id="text_2">
      <!-- 30 -->
      <g transform="translate(129.6975 318.238437) scale(0.1 -0.1)">
       <defs>
        <path id="DejaVuSans-33" d="M 2597 2516 
Q 3050 2419 3304 2112 
Q 3559 1806 3559 1356 
Q 3559 666 3084 287 
Q 2609 -91 1734 -91 
Q 1441 -91 1130 -33 
Q 819 25 488 141 
L 488 750 
Q 750 597 1062 519 
Q 1375 441 1716 441 
Q 2309 441 2620 675 
Q 2931 909 2931 1356 
Q 2931 1769 2642 2001 
Q 2353 2234 1838 2234 
L 1294 2234 
L 1294 2753 
L 1863 2753 
Q 2328 2753 2575 2939 
Q 2822 3125 2822 3475 
Q 2822 3834 2567 4026 
Q 2313 4219 1838 4219 
Q 1578 4219 1281 4162 
Q 984 4106 628 3988 
L 628 4550 
Q 988 4650 1302 4700 
Q 1616 4750 1894 4750 
Q 2613 4750 3031 4423 
Q 3450 4097 3450 3541 
Q 3450 3153 3228 2886 
Q 3006 2619 2597 2516 
z
" transform="scale(0.015625)"/>
       </defs>
       <use xlink:href="#DejaVuSans-33"/>
       <use xlink:href="#DejaVuSans-30" transform="translate(63.623047 0)"/>
      </g>
     </g>
    </g>
    <g id="xtick_3">
     <g id="line2d_3">
      <g>
       <use xlink:href="#m0348d8a1f8" x="212.97" y="303.64" style="stroke: #000000; stroke-width: 0.8"/>
      </g>
     </g>
     <g id="text_3">
      <!-- 40 -->
      <g transform="translate(206.6075 318.238437) scale(0.1 -0.1)">
       <defs>
        <path id="DejaVuSans-34" d="M 2419 4116 
L 825 1625 
L 2419 1625 
L 2419 4116 
z
M 2253 4666 
L 3047 4666 
L 3047 1625 
L 3713 1625 
L 3713 1100 
L 3047 1100 
L 3047 0 
L 2419 0 
L 2419 1100 
L 313 1100 
L 313 1709 
L 2253 4666 
z
" transform="scale(0.015625)"/>
       </defs>
       <use xlink:href="#DejaVuSans-34"/>
       <use xlink:href="#DejaVuSans-30" transform="translate(63.623047 0)"/>
      </g>
     </g>
    </g>
    <g id="xtick_4">
     <g id="line2d_4">
      <g>
       <use xlink:href="#m0348d8a1f8" x="289.88" y="303.64" style="stroke: #000000; stroke-width: 0.8"/>
      </g>
     </g>
     <g id="text_4">
      <!-- 50 -->
      <g transform="translate(283.5175 318.238437) scale(0.1 -0.1)">
       <defs>
        <path id="DejaVuSans-35" d="M 691 4666 
L 3169 4666 
L 3169 4134 
L 1269 4134 
L 1269 2991 
Q 1406 3038 1543 3061 
Q 1681 3084 1819 3084 
Q 2600 3084 3056 2656 
Q 3513 2228 3513 1497 
Q 3513 744 3044 326 
Q 2575 -91 1722 -91 
Q 1428 -91 1123 -41 
Q 819 9 494 109 
L 494 744 
Q 775 591 1075 516 
Q 1375 441 1709 441 
Q 2250 441 2565 725 
Q 2881 1009 2881 1497 
Q 2881 1984 2565 2268 
Q 2250 2553 1709 2553 
Q 1456 2553 1204 2497 
Q 953 2441 691 2322 
L 691 4666 
z
" transform="scale(0.015625)"/>
       </defs>
       <use xlink:href="#DejaVuSans-35"/>
       <use xlink:href="#DejaVuSans-30" transform="translate(63.623047 0)"/>
      </g>
     </g>
    </g>
    <g id="xtick_5">
     <g id="line2d_5">
      <g>
       <use xlink:href="#m0348d8a1f8" x="366.79" y="303.64" style="stroke: #000000; stroke-width: 0.8"/>
      </g>
     </g>
     <g id="text_5">
      <!-- 60 -->
      <g transform="translate(360.4275 318.238437) scale(0.1 -0.1)">
       <defs>
        <path id="DejaVuSans-36" d="M 2113 2584 
Q 1688 2584 1439 2293 
Q 1191 2003 1191 1497 
Q 1191 994 1439 701 
Q 1688 409 2113 409 
Q 2538 409 2786 701 
Q 3034 994 3034 1497 
Q 3034 2003 2786 2293 
Q 2538 2584 2113 2584 
z
M 3366 4563 
L 3366 3988 
Q 3128 4100 2886 4159 
Q 2644 4219 2406 4219 
Q 1781 4219 1451 3797 
Q 1122 3375 1075 2522 
Q 1259 2794 1537 2939 
Q 1816 3084 2150 3084 
Q 2853 3084 3261 2657 
Q 3669 2231 3669 1497 
Q 3669 778 3244 343 
Q 2819 -91 2113 -91 
Q 1303 -91 875 529 
Q 447 1150 447 2328 
Q 447 3434 972 4092 
Q 1497 4750 2381 4750 
Q 2619 4750 2861 4703 
Q 3103 4656 3366 4563 
z
" transform="scale(0.015625)"/>
       </defs>
       <use xlink:href="#DejaVuSans-36"/>
       <use xlink:href="#DejaVuSans-30" transform="translate(63.623047 0)"/>
      </g>
     </g>
    </g>
    <g id="xtick_6">
     <g id="line2d_6">
      <g>
       <use xlink:href="#m0348d8a1f8" x="443.7" y="303.64" style="stroke: #000000; stroke-width: 0.8"/>
      </g>
     </g>
     <g id="text_6">
      <!-- 70 -->
      <g transform="translate(437.3375 318.238437) scale(0.1 -0.1)">
       <defs>
        <path id="DejaVuSans-37" d="M 525 4666 
L 3525 4666 
L 3525 4397 
L 1831 0 
L 1172 0 
L 2766 4134 
L 525 4134 
L 525 4666 
z
" transform="scale(0.015625)"/>
       </defs>
       <use xlink:href="#DejaVuSans-37"/>
       <use xlink:href="#DejaVuSans-30" transform="translate(63.623047 0)"/>
      </g>
     </g>
    </g>
    <g id="text_7">
     <!-- Czas [s] -->
     <g transform="translate(231.545313 331.916562) scale(0.1 -0.1)">
      <defs>
       <path id="DejaVuSans-43" d="M 4122 4306 
L 4122 3641 
Q 3803 3938 3442 4084 
Q 3081 4231 2675 4231 
Q 1875 4231 1450 3742 
Q 1025 3253 1025 2328 
Q 1025 1406 1450 917 
Q 1875 428 2675 428 
Q 3081 428 3442 575 
Q 3803 722 4122 1019 
L 4122 359 
Q 3791 134 3420 21 
Q 3050 -91 2638 -91 
Q 1578 -91 968 557 
Q 359 1206 359 2328 
Q 359 3453 968 4101 
Q 1578 4750 2638 4750 
Q 3056 4750 3426 4639 
Q 3797 4528 4122 4306 
z
" transform="scale(0.015625)"/>
       <path id="DejaVuSans-7a" d="M 353 3500 
L 3084 3500 
L 3084 2975 
L 922 459 
L 3084 459 
L 3084 0 
L 275 0 
L 275 525 
L 2438 3041 
L 353 3041 
L 353 3500 
z
" transform="scale(0.015625)"/>
       <path id="DejaVuSans-61" d="M 2194 1759 
Q 1497 1759 1228 1600 
Q 959 1441 959 1056 
Q 959 750 1161 570 
Q 1363 391 1709 391 
Q 2188 391 2477 730 
Q 2766 1069 2766 1631 
L 2766 1759 
L 2194 1759 
z
M 3341 1997 
L 3341 0 
L 2766 0 
L 2766 531 
Q 2569 213 2275 61 
Q 1981 -91 1556 -91 
Q 1019 -91 701 211 
Q 384 513 384 1019 
Q 384 1609 779 1909 
Q 1175 2209 1959 2209 
L 2766 2209 
L 2766 2266 
Q 2766 2663 2505 2880 
Q 2244 3097 1772 3097 
Q 1472 3097 1187 3025 
Q 903 2953 641 2809 
L 641 3341 
Q 956 3463 1253 3523 
Q 1550 3584 1831 3584 
Q 2591 3584 2966 3190 
Q 3341 2797 3341 1997 
z
" transform="scale(0.015625)"/>
       <path id="DejaVuSans-73" d="M 2834 3397 
L 2834 2853 
Q 2591 2978 2328 3040 
Q 2066 3103 1784 3103 
Q 1356 3103 1142 2972 
Q 928 2841 928 2578 
Q 928 2378 1081 2264 
Q 1234 2150 1697 2047 
L 1894 2003 
Q 2506 1872 2764 1633 
Q 3022 1394 3022 966 
Q 3022 478 2636 193 
Q 2250 -91 1575 -91 
Q 1294 -91 989 -36 
Q 684 19 347 128 
L 347 722 
Q 666 556 975 473 
Q 1284 391 1588 391 
Q 1994 391 2212 530 
Q 2431 669 2431 922 
Q 2431 1156 2273 1281 
Q 2116 1406 1581 1522 
L 1381 1569 
Q 847 1681 609 1914 
Q 372 2147 372 2553 
Q 372 3047 722 3315 
Q 1072 3584 1716 3584 
Q 2034 3584 2315 3537 
Q 2597 3491 2834 3397 
z
" transform="scale(0.015625)"/>
       <path id="DejaVuSans-20" transform="scale(0.015625)"/>
       <path id="DejaVuSans-5b" d="M 550 4863 
L 1875 4863 
L 1875 4416 
L 1125 4416 
L 1125 -397 
L 1875 -397 
L 1875 -844 
L 550 -844 
L 550 4863 
z
" transform="scale(0.015625)"/>
       <path id="DejaVuSans-5d" d="M 1947 4863 
L 1947 -844 
L 622 -844 
L 622 -397 
L 1369 -397 
L 1369 4416 
L 622 4416 
L 622 4863 
L 1947 4863 
z
" transform="scale(0.015625)"/>
      </defs>
      <use xlink:href="#DejaVuSans-43"/>
      <use xlink:href="#DejaVuSans-7a" transform="translate(69.824219 0)"/>
      <use xlink:href="#DejaVuSans-61" transform="translate(122.314453 0)"/>
      <use xlink:href="#DejaVuSans-73" transform="translate(183.59375 0)"/>
      <use xlink:href="#DejaVuSans-20" transform="translate(235.693359 0)"/>
      <use xlink:href="#DejaVuSans-5b" transform="translate(267.480469 0)"/>
      <use xlink:href="#DejaVuSans-73" transform="translate(306.494141 0)"/>
      <use xlink:href="#DejaVuSans-5d" transform="translate(358.59375 0)"/>
     </g>
    </g>
   </g>
   <g id="matplotlib.axis_2">
    <g id="ytick_1">
     <g id="line2d_7">
      <defs>
       <path id="m8cf8cf924b" d="M 0 0 
L -3.5 0 
" style="stroke: #000000; stroke-width: 0.8"/>
      </defs>
      <g>
       <use xlink:href="#m8cf8cf924b" x="59.15" y="255.493333" style="stroke: #000000; stroke-width: 0.8"/>
      </g>
     </g>
     <g id="text_8">
      <!-- −500 -->
      <g transform="translate(24.682813 259.292552) scale(0.1 -0.1)">
       <defs>
        <path id="DejaVuSans-2212" d="M 678 2272 
L 4684 2272 
L 4684 1741 
L 678 1741 
L 678 2272 
z
" transform="scale(0.015625)"/>
       </defs>
       <use xlink:href="#DejaVuSans-2212"/>
       <use xlink:href="#DejaVuSans-35" transform="translate(83.789062 0)"/>
       <use xlink:href="#DejaVuSans-30" transform="translate(147.412109 0)"/>
       <use xlink:href="#DejaVuSans-30" transform="translate(211.035156 0)"/>
      </g>
     </g>
    </g>
    <g id="ytick_2">
     <g id="line2d_8">
      <g>
       <use xlink:href="#m8cf8cf924b" x="59.15" y="195.31" style="stroke: #000000; stroke-width: 0.8"/>
      </g>
     </g>
     <g id="text_9">
      <!-- 0 -->
      <g transform="translate(45.7875 199.109219) scale(0.1 -0.1)">
       <use xlink:href="#DejaVuSans-30"/>
      </g>
     </g>
    </g>
    <g id="ytick_3">
     <g id="line2d_9">
      <g>
       <use xlink:href="#m8cf8cf924b" x="59.15" y="135.126667" style="stroke: #000000; stroke-width: 0.8"/>
      </g>
     </g>
     <g id="text_10">
      <!-- 500 -->
      <g transform="translate(33.0625 138.925885) scale(0.1 -0.1)">
       <use xlink:href="#DejaVuSans-35"/>
       <use xlink:href="#DejaVuSans-30" transform="translate(63.623047 0)"/>
       <use xlink:href="#DejaVuSans-30" transform="translate(127.246094 0)"/>
      </g>
     </g>
    </g>
    <g id="ytick_4">
     <g id="line2d_10">
      <g>
       <use xlink:href="#m8cf8cf924b" x="59.15" y="74.943333" style="stroke: #000000; stroke-width: 0.8"/>
      </g>
     </g>
     <g id="text_11">
      <!-- 1000 -->
      <g transform="translate(26.7 78.742552) scale(0.1 -0.1)">
       <defs>
        <path id="DejaVuSans-31" d="M 794 531 
L 1825 531 
L 1825 4091 
L 703 3866 
L 703 4441 
L 1819 4666 
L 2450 4666 
L 2450 531 
L 3481 531 
L 3481 0 
L 794 0 
L 794 531 
z
" transform="scale(0.015625)"/>
       </defs>
       <use xlink:href="#DejaVuSans-31"/>
       <use xlink:href="#DejaVuSans-30" transform="translate(63.623047 0)"/>
       <use xlink:href="#DejaVuSans-30" transform="translate(127.246094 0)"/>
       <use xlink:href="#DejaVuSans-30" transform="translate(190.869141 0)"/>
      </g>
     </g>
    </g>
    <g id="ytick_5">
     <g id="line2d_11">
      <g>
       <use xlink:href="#m8cf8cf924b" x="59.15" y="14.76" style="stroke: #000000; stroke-width: 0.8"/>
      </g>
     </g>
     <g id="text_12">
      <!-- 1500 -->
      <g transform="translate(26.7 18.559219) scale(0.1 -0.1)">
       <use xlink:href="#DejaVuSans-31"/>
       <use xlink:href="#DejaVuSans-35" transform="translate(63.623047 0)"/>
       <use xlink:href="#DejaVuSans-30" transform="translate(127.246094 0)"/>
       <use xlink:href="#DejaVuSans-30" transform="translate(190.869141 0)"/>
      </g>
     </g>
    </g>
    <g id="text_13">
     <!-- Amplituda sygnału z czoła (EMG) -->
     <g transform="translate(18.603125 241.51875) rotate(-90) scale(0.1 -0.1)">
      <defs>
       <path id="DejaVuSans-41" d="M 2188 4044 
L 1331 1722 
L 3047 1722 
L 2188 4044 
z
M 1831 4666 
L 2547 4666 
L 4325 0 
L 3669 0 
L 3244 1197 
L 1141 1197 
L 716 0 
L 50 0 
L 1831 4666 
z
" transform="scale(0.015625)"/>
       <path id="DejaVuSans-6d" d="M 3328 2828 
Q 3544 3216 3844 3400 
Q 4144 3584 4550 3584 
Q 5097 3584 5394 3201 
Q 5691 2819 5691 2113 
L 5691 0 
L 5113 0 
L 5113 2094 
Q 5113 2597 4934 2840 
Q 4756 3084 4391 3084 
Q 3944 3084 3684 2787 
Q 3425 2491 3425 1978 
L 3425 0 
L 2847 0 
L 2847 2094 
Q 2847 2600 2669 2842 
Q 2491 3084 2119 3084 
Q 1678 3084 1418 2786 
Q 1159 2488 1159 1978 
L 1159 0 
L 581 0 
L 581 3500 
L 1159 3500 
L 1159 2956 
Q 1356 3278 1631 3431 
Q 1906 3584 2284 3584 
Q 2666 3584 2933 3390 
Q 3200 3197 3328 2828 
z
" transform="scale(0.015625)"/>
       <path id="DejaVuSans-70" d="M 1159 525 
L 1159 -1331 
L 581 -1331 
L 581 3500 
L 1159 3500 
L 1159 2969 
Q 1341 3281 1617 3432 
Q 1894 3584 2278 3584 
Q 2916 3584 3314 3078 
Q 3713 2572 3713 1747 
Q 3713 922 3314 415 
Q 2916 -91 2278 -91 
Q 1894 -91 1617 61 
Q 1341 213 1159 525 
z
M 3116 1747 
Q 3116 2381 2855 2742 
Q 2594 3103 2138 3103 
Q 1681 3103 1420 2742 
Q 1159 2381 1159 1747 
Q 1159 1113 1420 752 
Q 1681 391 2138 391 
Q 2594 391 2855 752 
Q 3116 1113 3116 1747 
z
" transform="scale(0.015625)"/>
       <path id="DejaVuSans-6c" d="M 603 4863 
L 1178 4863 
L 1178 0 
L 603 0 
L 603 4863 
z
" transform="scale(0.015625)"/>
       <path id="DejaVuSans-69" d="M 603 3500 
L 1178 3500 
L 1178 0 
L 603 0 
L 603 3500 
z
M 603 4863 
L 1178 4863 
L 1178 4134 
L 603 4134 
L 603 4863 
z
" transform="scale(0.015625)"/>
       <path id="DejaVuSans-74" d="M 1172 4494 
L 1172 3500 
L 2356 3500 
L 2356 3053 
L 1172 3053 
L 1172 1153 
Q 1172 725 1289 603 
Q 1406 481 1766 481 
L 2356 481 
L 2356 0 
L 1766 0 
Q 1100 0 847 248 
Q 594 497 594 1153 
L 594 3053 
L 172 3053 
L 172 3500 
L 594 3500 
L 594 4494 
L 1172 4494 
z
" transform="scale(0.015625)"/>
       <path id="DejaVuSans-75" d="M 544 1381 
L 544 3500 
L 1119 3500 
L 1119 1403 
Q 1119 906 1312 657 
Q 1506 409 1894 409 
Q 2359 409 2629 706 
Q 2900 1003 2900 1516 
L 2900 3500 
L 3475 3500 
L 3475 0 
L 2900 0 
L 2900 538 
Q 2691 219 2414 64 
Q 2138 -91 1772 -91 
Q 1169 -91 856 284 
Q 544 659 544 1381 
z
M 1991 3584 
L 1991 3584 
z
" transform="scale(0.015625)"/>
       <path id="DejaVuSans-64" d="M 2906 2969 
L 2906 4863 
L 3481 4863 
L 3481 0 
L 2906 0 
L 2906 525 
Q 2725 213 2448 61 
Q 2172 -91 1784 -91 
Q 1150 -91 751 415 
Q 353 922 353 1747 
Q 353 2572 751 3078 
Q 1150 3584 1784 3584 
Q 2172 3584 2448 3432 
Q 2725 3281 2906 2969 
z
M 947 1747 
Q 947 1113 1208 752 
Q 1469 391 1925 391 
Q 2381 391 2643 752 
Q 2906 1113 2906 1747 
Q 2906 2381 2643 2742 
Q 2381 3103 1925 3103 
Q 1469 3103 1208 2742 
Q 947 2381 947 1747 
z
" transform="scale(0.015625)"/>
       <path id="DejaVuSans-79" d="M 2059 -325 
Q 1816 -950 1584 -1140 
Q 1353 -1331 966 -1331 
L 506 -1331 
L 506 -850 
L 844 -850 
Q 1081 -850 1212 -737 
Q 1344 -625 1503 -206 
L 1606 56 
L 191 3500 
L 800 3500 
L 1894 763 
L 2988 3500 
L 3597 3500 
L 2059 -325 
z
" transform="scale(0.015625)"/>
       <path id="DejaVuSans-67" d="M 2906 1791 
Q 2906 2416 2648 2759 
Q 2391 3103 1925 3103 
Q 1463 3103 1205 2759 
Q 947 2416 947 1791 
Q 947 1169 1205 825 
Q 1463 481 1925 481 
Q 2391 481 2648 825 
Q 2906 1169 2906 1791 
z
M 3481 434 
Q 3481 -459 3084 -895 
Q 2688 -1331 1869 -1331 
Q 1566 -1331 1297 -1286 
Q 1028 -1241 775 -1147 
L 775 -588 
Q 1028 -725 1275 -790 
Q 1522 -856 1778 -856 
Q 2344 -856 2625 -561 
Q 2906 -266 2906 331 
L 2906 616 
Q 2728 306 2450 153 
Q 2172 0 1784 0 
Q 1141 0 747 490 
Q 353 981 353 1791 
Q 353 2603 747 3093 
Q 1141 3584 1784 3584 
Q 2172 3584 2450 3431 
Q 2728 3278 2906 2969 
L 2906 3500 
L 3481 3500 
L 3481 434 
z
" transform="scale(0.015625)"/>
       <path id="DejaVuSans-6e" d="M 3513 2113 
L 3513 0 
L 2938 0 
L 2938 2094 
Q 2938 2591 2744 2837 
Q 2550 3084 2163 3084 
Q 1697 3084 1428 2787 
Q 1159 2491 1159 1978 
L 1159 0 
L 581 0 
L 581 3500 
L 1159 3500 
L 1159 2956 
Q 1366 3272 1645 3428 
Q 1925 3584 2291 3584 
Q 2894 3584 3203 3211 
Q 3513 2838 3513 2113 
z
" transform="scale(0.015625)"/>
       <path id="DejaVuSans-142" d="M 622 4863 
L 1197 4863 
L 1197 2981 
L 1588 3263 
L 1825 2931 
L 1197 2491 
L 1197 0 
L 622 0 
L 622 2081 
L 238 1806 
L 6 2138 
L 622 2578 
L 622 4863 
z
" transform="scale(0.015625)"/>
       <path id="DejaVuSans-63" d="M 3122 3366 
L 3122 2828 
Q 2878 2963 2633 3030 
Q 2388 3097 2138 3097 
Q 1578 3097 1268 2742 
Q 959 2388 959 1747 
Q 959 1106 1268 751 
Q 1578 397 2138 397 
Q 2388 397 2633 464 
Q 2878 531 3122 666 
L 3122 134 
Q 2881 22 2623 -34 
Q 2366 -91 2075 -91 
Q 1284 -91 818 406 
Q 353 903 353 1747 
Q 353 2603 823 3093 
Q 1294 3584 2113 3584 
Q 2378 3584 2631 3529 
Q 2884 3475 3122 3366 
z
" transform="scale(0.015625)"/>
       <path id="DejaVuSans-6f" d="M 1959 3097 
Q 1497 3097 1228 2736 
Q 959 2375 959 1747 
Q 959 1119 1226 758 
Q 1494 397 1959 397 
Q 2419 397 2687 759 
Q 2956 1122 2956 1747 
Q 2956 2369 2687 2733 
Q 2419 3097 1959 3097 
z
M 1959 3584 
Q 2709 3584 3137 3096 
Q 3566 2609 3566 1747 
Q 3566 888 3137 398 
Q 2709 -91 1959 -91 
Q 1206 -91 779 398 
Q 353 888 353 1747 
Q 353 2609 779 3096 
Q 1206 3584 1959 3584 
z
" transform="scale(0.015625)"/>
       <path id="DejaVuSans-28" d="M 1984 4856 
Q 1566 4138 1362 3434 
Q 1159 2731 1159 2009 
Q 1159 1288 1364 580 
Q 1569 -128 1984 -844 
L 1484 -844 
Q 1016 -109 783 600 
Q 550 1309 550 2009 
Q 550 2706 781 3412 
Q 1013 4119 1484 4856 
L 1984 4856 
z
" transform="scale(0.015625)"/>
       <path id="DejaVuSans-45" d="M 628 4666 
L 3578 4666 
L 3578 4134 
L 1259 4134 
L 1259 2753 
L 3481 2753 
L 3481 2222 
L 1259 2222 
L 1259 531 
L 3634 531 
L 3634 0 
L 628 0 
L 628 4666 
z
" transform="scale(0.015625)"/>
       <path id="DejaVuSans-4d" d="M 628 4666 
L 1569 4666 
L 2759 1491 
L 3956 4666 
L 4897 4666 
L 4897 0 
L 4281 0 
L 4281 4097 
L 3078 897 
L 2444 897 
L 1241 4097 
L 1241 0 
L 628 0 
L 628 4666 
z
" transform="scale(0.015625)"/>
       <path id="DejaVuSans-47" d="M 3809 666 
L 3809 1919 
L 2778 1919 
L 2778 2438 
L 4434 2438 
L 4434 434 
Q 4069 175 3628 42 
Q 3188 -91 2688 -91 
Q 1594 -91 976 548 
Q 359 1188 359 2328 
Q 359 3472 976 4111 
Q 1594 4750 2688 4750 
Q 3144 4750 3555 4637 
Q 3966 4525 4313 4306 
L 4313 3634 
Q 3963 3931 3569 4081 
Q 3175 4231 2741 4231 
Q 1884 4231 1454 3753 
Q 1025 3275 1025 2328 
Q 1025 1384 1454 906 
Q 1884 428 2741 428 
Q 3075 428 3337 486 
Q 3600 544 3809 666 
z
" transform="scale(0.015625)"/>
       <path id="DejaVuSans-29" d="M 513 4856 
L 1013 4856 
Q 1481 4119 1714 3412 
Q 1947 2706 1947 2009 
Q 1947 1309 1714 600 
Q 1481 -109 1013 -844 
L 513 -844 
Q 928 -128 1133 580 
Q 1338 1288 1338 2009 
Q 1338 2731 1133 3434 
Q 928 4138 513 4856 
z
" transform="scale(0.015625)"/>
      </defs>
      <use xlink:href="#DejaVuSans-41"/>
      <use xlink:href="#DejaVuSans-6d" transform="translate(68.408203 0)"/>
      <use xlink:href="#DejaVuSans-70" transform="translate(165.820312 0)"/>
      <use xlink:href="#DejaVuSans-6c" transform="translate(229.296875 0)"/>
      <use xlink:href="#DejaVuSans-69" transform="translate(257.080078 0)"/>
      <use xlink:href="#DejaVuSans-74" transform="translate(284.863281 0)"/>
      <use xlink:href="#DejaVuSans-75" transform="translate(324.072266 0)"/>
      <use xlink:href="#DejaVuSans-64" transform="translate(387.451172 0)"/>
      <use xlink:href="#DejaVuSans-61" transform="translate(450.927734 0)"/>
      <use xlink:href="#DejaVuSans-20" transform="translate(512.207031 0)"/>
      <use xlink:href="#DejaVuSans-73" transform="translate(543.994141 0)"/>
      <use xlink:href="#DejaVuSans-79" transform="translate(596.09375 0)"/>
      <use xlink:href="#DejaVuSans-67" transform="translate(655.273438 0)"/>
      <use xlink:href="#DejaVuSans-6e" transform="translate(718.75 0)"/>
      <use xlink:href="#DejaVuSans-61" transform="translate(782.128906 0)"/>
      <use xlink:href="#DejaVuSans-142" transform="translate(843.408203 0)"/>
      <use xlink:href="#DejaVuSans-75" transform="translate(871.826172 0)"/>
      <use xlink:href="#DejaVuSans-20" transform="translate(935.205078 0)"/>
      <use xlink:href="#DejaVuSans-7a" transform="translate(966.992188 0)"/>
      <use xlink:href="#DejaVuSans-20" transform="translate(1019.482422 0)"/>
      <use xlink:href="#DejaVuSans-63" transform="translate(1051.269531 0)"/>
      <use xlink:href="#DejaVuSans-7a" transform="translate(1106.25 0)"/>
      <use xlink:href="#DejaVuSans-6f" transform="translate(1158.740234 0)"/>
      <use xlink:href="#DejaVuSans-142" transform="translate(1219.921875 0)"/>
      <use xlink:href="#DejaVuSans-61" transform="translate(1248.339844 0)"/>
      <use xlink:href="#DejaVuSans-20" transform="translate(1309.619141 0)"/>
      <use xlink:href="#DejaVuSans-28" transform="translate(1341.40625 0)"/>
      <use xlink:href="#DejaVuSans-45" transform="translate(1380.419922 0)"/>
      <use xlink:href="#DejaVuSans-4d" transform="translate(1443.603516 0)"/>
      <use xlink:href="#DejaVuSans-47" transform="translate(1529.882812 0)"/>
      <use xlink:href="#DejaVuSans-29" transform="translate(1607.373047 0)"/>
     </g>
    </g>
   </g>
   <g id="line2d_12">
    <path d="M 59.121656 194.728236 
L 59.313943 177.748244 
L 59.544688 157.980366 
L 59.583146 158.907295 
L 59.621603 156.353699 
L 59.698518 136.020516 
L 59.736976 141.388132 
L 59.890806 248.464633 
L 59.929264 238.385199 
L 60.006179 226.952218 
L 60.083094 227.384659 
L 60.198466 221.275314 
L 60.236924 221.588187 
L 60.352296 217.262745 
L 60.506127 202.762106 
L 60.775329 182.841739 
L 60.890702 184.803286 
L 61.121447 188.51245 
L 61.23682 190.565192 
L 61.352192 192.937468 
L 61.39065 192.835287 
L 61.54448 189.972761 
L 61.621395 190.620816 
L 61.85214 192.41183 
L 61.929055 192.467014 
L 62.044428 195.23823 
L 62.275173 202.351218 
L 62.31363 201.907166 
L 62.775121 195.599751 
L 62.852036 194.934082 
L 62.890493 195.046872 
L 63.044323 196.947008 
L 63.082781 196.794016 
L 63.198154 195.428983 
L 63.313526 192.70813 
L 63.351984 193.011182 
L 63.467356 194.30961 
L 63.505814 194.15462 
L 63.544271 194.112318 
L 63.851932 195.41703 
L 64.082677 191.733668 
L 64.121134 192.014787 
L 64.467252 199.483133 
L 64.50571 199.201203 
L 64.697997 196.673189 
L 64.81337 193.863725 
L 64.851827 194.180235 
L 65.005657 197.107191 
L 65.044115 196.916675 
L 65.159487 190.551406 
L 65.27486 183.289975 
L 65.313318 183.857798 
L 65.774808 207.319379 
L 65.890181 202.387824 
L 66.159383 186.73422 
L 66.197841 187.412676 
L 66.659331 197.607696 
L 66.736246 196.636446 
L 66.851619 194.733856 
L 66.890076 195.225878 
L 66.928534 195.547591 
L 66.966991 195.319596 
L 67.274652 192.453086 
L 67.390024 192.202541 
L 67.466939 193.936443 
L 67.736142 203.307126 
L 67.813057 201.607727 
L 68.120717 189.990772 
L 68.159175 190.077876 
L 68.351462 192.476041 
L 68.582208 197.470779 
L 68.620665 197.258478 
L 68.774495 195.462411 
L 68.812953 195.535707 
L 69.120613 197.350826 
L 69.15907 197.075983 
L 69.312901 194.879522 
L 69.428273 192.912032 
L 69.466731 193.036147 
L 69.735933 195.531971 
L 69.774391 195.473222 
L 69.889763 194.18431 
L 69.928221 194.314763 
L 70.082051 196.036894 
L 70.235881 198.400907 
L 70.274339 198.070991 
L 70.543541 195.387709 
L 70.581999 195.554777 
L 70.774287 199.784639 
L 70.812744 199.40457 
L 70.928117 192.477554 
L 71.081947 179.229605 
L 71.120404 179.326824 
L 71.274234 191.518725 
L 71.50498 210.326291 
L 71.543437 210.126995 
L 71.65881 202.568676 
L 71.889555 184.653315 
L 71.928012 184.842011 
L 72.158758 195.049577 
L 72.42796 203.210404 
L 72.504875 204.020372 
L 72.543333 203.754535 
L 72.735621 199.935877 
L 73.081738 187.127965 
L 73.197111 186.566957 
L 73.235568 186.547982 
L 73.312483 188.992354 
L 73.504771 200.554405 
L 73.543229 200.273418 
L 74.004719 183.57886 
L 74.081634 184.537519 
L 74.658497 205.944591 
L 74.889242 221.325619 
L 75.158445 255.221337 
L 75.196902 248.572868 
L 75.350732 132.536023 
L 75.38919 142.610224 
L 75.54302 160.593031 
L 75.85068 185.961758 
L 76.389086 203.387173 
L 76.466001 204.453284 
L 76.504458 204.263392 
L 76.581373 203.634353 
L 76.619831 203.926521 
L 76.658288 204.266028 
L 76.696746 204.151735 
L 76.773661 203.585788 
L 76.812119 203.808593 
L 76.850576 203.809554 
L 76.965949 199.357173 
L 77.042864 197.009257 
L 77.119779 197.585226 
L 77.196694 198.147707 
L 77.312066 194.383389 
L 77.504354 185.554962 
L 77.542812 186.269387 
L 77.850472 198.046767 
L 78.004302 201.162067 
L 78.081217 199.180141 
L 78.35042 184.940126 
L 78.388877 185.541724 
L 78.696537 200.614103 
L 78.773453 199.823468 
L 78.888825 198.650566 
L 78.927283 198.690282 
L 79.004198 199.389047 
L 79.042655 199.226688 
L 79.465688 188.991031 
L 79.504146 189.236558 
L 79.657976 193.380522 
L 79.927178 205.086094 
L 79.965636 204.86106 
L 80.119466 198.408774 
L 80.350211 191.878616 
L 80.388669 191.919606 
L 80.580956 193.725968 
L 80.657871 193.503724 
L 80.696329 193.453947 
L 80.773244 194.530098 
L 80.965532 197.248629 
L 81.042447 197.568672 
L 81.080904 197.416484 
L 81.465479 193.14252 
L 81.503937 193.43268 
L 81.580852 193.922953 
L 81.61931 193.856661 
L 81.77314 193.460082 
L 81.811597 193.514798 
L 81.888512 194.048744 
L 81.92697 193.95211 
L 82.003885 193.083948 
L 82.042342 193.146464 
L 82.157715 194.362915 
L 82.196173 194.09401 
L 82.273088 193.789073 
L 82.311545 193.959905 
L 82.580748 194.650608 
L 82.657663 193.879174 
L 82.734578 192.805591 
L 82.773035 192.970466 
L 82.926866 196.060257 
L 83.349898 206.21853 
L 83.503728 203.406302 
L 83.542186 204.259091 
L 83.657559 206.605388 
L 83.696016 205.968173 
L 83.811389 199.304518 
L 84.042134 180.052608 
L 84.080591 180.370602 
L 84.157506 180.789174 
L 84.195964 180.240275 
L 84.426709 169.208078 
L 84.503624 143.356253 
L 84.542082 145.981605 
L 84.695912 244.66266 
L 84.734369 230.705041 
L 84.888199 206.27732 
L 85.272775 142.624837 
L 85.311232 146.868478 
L 85.465062 250.827828 
L 85.50352 237.132225 
L 85.580435 198.668315 
L 85.618893 203.331854 
L 85.772723 290.27515 
L 85.81118 273.284919 
L 86.041925 190.833542 
L 86.080383 197.360572 
L 86.157298 249.009336 
L 86.195755 238.89455 
L 86.349586 80.600876 
L 86.388043 88.338495 
L 86.657246 158.192917 
L 86.964906 191.056917 
L 87.311024 203.805107 
L 87.349481 203.637513 
L 87.618684 207.557237 
L 87.657142 207.41582 
L 87.734057 209.020117 
L 87.849429 211.786835 
L 88.387835 274.844354 
L 88.426292 286.165938 
L 88.46475 281.485337 
L 88.61858 182.649393 
L 88.657037 200.819016 
L 88.733952 240.826237 
L 88.77241 232.608166 
L 89.118528 83.11631 
L 89.38773 33.067164 
L 89.426188 30.710254 
L 89.464645 31.530211 
L 89.618475 52.025917 
L 89.887678 167.790044 
L 90.106574 346.6 
M 90.706795 346.6 
L 90.725981 -1 
M 91.287873 -1 
L 91.695182 282.797458 
L 91.964385 337.152485 
L 92.002842 339.009615 
L 92.0413 336.50119 
L 92.233587 307.171319 
L 93.002738 167.267424 
L 93.195026 157.580953 
L 93.387313 154.934156 
L 93.694973 166.293283 
L 94.079549 191.581371 
L 94.502582 206.941665 
L 94.733327 211.613635 
L 94.887157 209.227398 
L 95.194817 199.127578 
L 95.387105 196.216424 
L 95.502477 194.675246 
L 95.540935 194.795615 
L 95.61785 195.454729 
L 95.656307 195.449061 
L 95.77168 194.197195 
L 95.887053 195.5214 
L 95.92551 195.196508 
L 96.07934 193.387874 
L 96.194713 191.163834 
L 96.23317 191.889207 
L 96.387 194.22488 
L 96.425458 194.220336 
L 96.502373 192.740205 
L 96.694661 186.380661 
L 96.733118 186.671315 
L 97.040778 192.537004 
L 97.079236 192.508974 
L 97.271524 190.713053 
L 97.502269 184.766537 
L 97.617641 190.175257 
L 98.348334 253.617886 
L 98.386792 244.689563 
L 98.540622 129.032094 
L 98.57908 139.181697 
L 98.771367 162.583085 
L 99.079027 192.518754 
L 99.232858 197.4738 
L 99.271315 197.409304 
L 99.34823 197.041967 
L 99.50206 201.584989 
L 99.578975 202.883609 
L 99.617433 202.716302 
L 99.771263 202.011105 
L 99.80972 201.745531 
L 99.848178 202.120631 
L 99.925093 203.070398 
L 99.963551 202.607888 
L 100.040466 201.363804 
L 100.078923 201.562372 
L 100.155838 202.101747 
L 100.694244 192.402834 
L 100.924989 193.040058 
L 101.040361 194.455072 
L 101.078819 193.871406 
L 101.155734 192.390918 
L 101.194191 192.524102 
L 101.424937 194.536489 
L 101.463394 194.795433 
L 101.501852 194.544816 
L 101.578767 193.692453 
L 101.655682 193.872899 
L 101.771054 193.11311 
L 101.809512 193.589023 
L 102.0018 196.175286 
L 102.117172 196.78942 
L 102.271002 193.574282 
L 102.347917 194.384797 
L 102.46329 196.009866 
L 102.501747 195.893268 
L 102.61712 194.454888 
L 102.77095 190.399352 
L 102.809408 191.426132 
L 103.155525 206.08899 
L 103.193983 205.96898 
L 103.578558 189.674282 
L 103.693931 191.975879 
L 103.924676 199.529441 
L 103.963134 199.634515 
L 104.001591 199.475631 
L 104.347709 192.970481 
L 104.578454 185.251392 
L 104.616911 185.273095 
L 104.693827 184.836483 
L 104.732284 184.537597 
L 104.770742 184.658026 
L 105.039944 190.625497 
L 105.270689 194.244443 
L 105.347605 194.541231 
L 105.462977 197.905158 
L 105.770637 215.511489 
L 106.03984 246.339106 
L 106.078298 256.165776 
L 106.116755 249.376414 
L 106.270585 136.579981 
L 106.309043 146.436063 
L 106.462873 160.687779 
L 106.808991 186.405887 
L 107.155108 200.892375 
L 107.347396 204.816276 
L 107.385854 204.775713 
L 107.501226 205.621695 
L 107.539684 205.394725 
L 108.116547 196.774001 
L 108.193462 195.835995 
L 108.347292 191.889598 
L 108.385749 192.129762 
L 108.578037 194.91216 
L 108.616494 194.519906 
L 108.84724 188.831747 
L 108.885697 189.148698 
L 109.077985 194.849253 
L 109.270272 201.650356 
L 109.30873 200.861914 
L 109.654848 189.110733 
L 109.693305 189.139881 
L 109.808678 192.308455 
L 110.116338 202.216772 
L 110.154796 202.04441 
L 110.654743 191.804234 
L 110.885489 190.698216 
L 110.923946 191.149168 
L 111.231606 199.433515 
L 111.270064 198.459148 
L 111.500809 192.374949 
L 111.731554 191.073997 
L 111.770012 191.198256 
L 111.885384 194.314119 
L 112.193045 201.490327 
L 112.42379 203.550382 
L 112.846823 200.321794 
L 112.923738 201.208232 
L 112.962195 200.7934 
L 113.269855 187.928113 
L 113.731346 155.011063 
L 113.808261 134.86426 
L 113.846718 141.654176 
L 114.000548 255.616815 
L 114.039006 245.987656 
L 114.192836 229.345173 
L 114.500496 204.927481 
L 114.692784 196.909093 
L 114.923529 189.067472 
L 115.077359 181.532468 
L 115.115817 182.214967 
L 115.461934 196.704685 
L 115.577307 194.840326 
L 115.84651 186.608037 
L 115.884967 186.707105 
L 116.00034 192.14196 
L 116.231085 202.275756 
L 116.269543 202.236514 
L 116.692575 196.031157 
L 116.923321 191.798234 
L 116.961778 191.26443 
L 117.000236 191.415917 
L 117.230981 196.604593 
L 117.461726 202.493005 
L 117.500183 202.534145 
L 117.615556 198.089882 
L 117.846301 191.602238 
L 117.923216 191.385529 
L 118.000131 192.375574 
L 118.269334 197.107985 
L 118.307792 196.868072 
L 118.384707 196.047315 
L 118.423164 196.339843 
L 118.500079 196.848309 
L 119.1154 188.386046 
L 119.192315 189.025786 
L 119.499975 192.929539 
L 119.692263 197.166149 
L 119.807635 199.641716 
L 120.03838 203.291221 
L 120.19221 205.485497 
L 120.230668 204.917399 
L 120.384498 203.932467 
L 120.422956 203.714614 
L 120.461413 203.792515 
L 120.499871 204.004705 
L 120.538328 203.867074 
L 120.807531 199.34121 
L 121.499766 140.504771 
L 121.538224 131.398445 
L 121.576681 139.250912 
L 121.730512 253.575208 
L 121.768969 244.661367 
L 121.961257 223.702769 
L 122.307375 185.101389 
L 122.422747 183.400766 
L 122.768865 194.750439 
L 123.191898 222.208173 
L 123.4611 269.284658 
L 123.499558 260.81845 
L 123.807218 77.378225 
L 124.153336 162.060781 
L 124.460996 244.112821 
L 124.537911 283.86619 
L 124.576369 283.302675 
L 124.884029 183.103174 
L 124.999401 144.057362 
L 125.037859 147.680136 
L 125.191689 251.411248 
L 125.230147 240.563337 
L 125.383977 223.238698 
L 125.576264 211.871092 
L 125.80701 207.468627 
L 125.845467 207.557698 
L 126.076212 196.878755 
L 126.345415 175.727023 
L 126.806905 98.406361 
L 126.922278 57.881631 
L 126.960735 64.027763 
L 127.422226 305.213818 
L 127.537598 244.8012 
L 127.576056 253.751076 
L 127.782872 346.6 
M 127.930329 346.6 
L 128.037546 288.462654 
L 128.076004 302.251005 
L 128.152919 313.470137 
L 128.191376 311.630623 
L 128.229834 310.810726 
L 128.345206 291.71695 
L 128.499037 226.403822 
L 128.729782 51.198674 
L 128.78223 -1 
M 129.353943 -1 
L 129.371963 346.6 
M 129.983212 346.6 
L 130.30654 119.545556 
L 130.575743 53.161853 
L 130.652658 47.585273 
L 130.691116 50.301682 
L 130.921861 80.901285 
L 131.883299 242.949383 
L 132.152502 236.4159 
L 133.152397 180.115016 
L 133.344685 178.516754 
L 133.383143 178.729474 
L 134.190751 199.089978 
L 134.306123 202.774816 
L 134.344581 202.687798 
L 134.459953 198.981385 
L 134.652241 194.630657 
L 134.690699 194.822227 
L 134.844529 199.454637 
L 135.036816 204.973205 
L 135.113731 203.376189 
L 135.459849 191.656392 
L 135.498307 191.631115 
L 135.536764 191.727885 
L 135.652137 192.483814 
L 135.844424 194.859544 
L 135.882882 194.709082 
L 135.92134 194.731013 
L 136.152085 196.510836 
L 136.190542 196.466232 
L 136.344372 193.885218 
L 136.421287 194.515768 
L 136.459745 194.586508 
L 136.652033 191.465896 
L 136.728948 191.731634 
L 136.805863 192.221047 
L 136.959693 198.114399 
L 137.075065 199.561129 
L 137.113523 199.482593 
L 137.190438 199.057172 
L 137.421183 194.120136 
L 137.498098 194.521309 
L 137.575013 195.006667 
L 137.613471 194.883895 
L 137.690386 194.538482 
L 137.728843 194.661914 
L 137.959589 196.091555 
L 137.998046 195.869342 
L 138.151876 194.963957 
L 138.190334 195.007784 
L 138.344164 195.504934 
L 138.382621 195.444238 
L 138.497994 194.426854 
L 138.536451 194.573171 
L 138.574909 194.76025 
L 138.613366 194.68008 
L 138.690282 194.328149 
L 138.728739 194.619371 
L 138.959484 196.442262 
L 139.074857 196.423957 
L 139.151772 196.162061 
L 139.459432 194.022719 
L 139.49789 194.116014 
L 139.690177 195.887299 
L 139.728635 195.745244 
L 139.920922 194.672282 
L 139.95938 194.737239 
L 140.074753 195.17559 
L 140.11321 195.097412 
L 140.228583 195.091302 
L 140.382413 194.056192 
L 140.42087 194.236286 
L 140.728531 198.13167 
L 140.843903 199.982309 
L 140.882361 199.768478 
L 140.959276 197.576967 
L 141.151563 188.069555 
L 141.190021 188.844032 
L 141.574596 204.277303 
L 141.689969 202.455538 
L 142.036087 188.346401 
L 142.113002 188.677938 
L 142.612949 196.374615 
L 142.651407 196.197954 
L 142.843695 186.592669 
L 142.92061 188.840379 
L 143.266727 204.573247 
L 143.53593 210.738189 
L 143.728218 207.342586 
L 144.228166 182.386855 
L 144.651198 154.952621 
L 144.728113 133.798836 
L 144.766571 140.444876 
L 144.920401 255.612639 
L 144.958859 246.128101 
L 145.112689 232.200401 
L 145.497264 205.827637 
L 145.958754 175.878431 
L 146.035669 178.023593 
L 146.65099 196.887685 
L 146.80482 198.717938 
L 146.881735 198.297846 
L 147.150938 194.201399 
L 147.189395 194.457396 
L 147.497056 201.626561 
L 147.535513 201.536319 
L 147.958546 188.93987 
L 148.035461 190.193627 
L 148.343121 198.102932 
L 148.420036 198.910064 
L 148.458494 198.520911 
L 148.612324 197.659363 
L 148.804611 191.920248 
L 148.919984 189.157427 
L 148.958442 189.333459 
L 149.073814 191.479903 
L 149.496847 200.879442 
L 149.573762 199.793812 
L 149.881422 192.767348 
L 149.91988 193.38067 
L 150.035252 195.715797 
L 150.07371 195.604995 
L 150.304455 193.481581 
L 150.342913 193.666023 
L 150.458285 195.979428 
L 150.496743 195.749446 
L 150.573658 194.717393 
L 150.612115 194.996673 
L 150.727488 196.405136 
L 150.765945 195.885257 
L 150.881318 193.882094 
L 150.919776 194.219385 
L 151.073606 196.809701 
L 151.112063 196.704322 
L 151.381266 194.341247 
L 151.419723 194.560601 
L 151.496638 195.171221 
L 151.535096 195.065859 
L 151.612011 194.767647 
L 151.765841 196.171949 
L 151.804299 195.871126 
L 151.919671 194.182541 
L 151.958129 194.527057 
L 152.188874 198.973442 
L 152.227331 198.127939 
L 152.419619 189.868367 
L 152.458077 190.423796 
L 152.842652 202.458011 
L 152.958025 199.469609 
L 153.265685 188.199747 
L 153.3426 189.844644 
L 153.611803 200.05373 
L 153.65026 199.779684 
L 153.765633 198.106758 
L 153.80409 198.452802 
L 153.881005 199.01844 
L 153.919463 198.65357 
L 154.304038 191.989158 
L 154.419411 191.529212 
L 154.457868 191.791948 
L 154.803986 200.973508 
L 154.842443 200.402976 
L 155.188561 193.867942 
L 155.265476 193.536535 
L 155.303934 193.618731 
L 155.380849 193.832558 
L 155.457764 193.323596 
L 155.496221 193.586463 
L 155.611594 195.26996 
L 155.688509 195.075385 
L 155.726967 195.10266 
L 155.880797 196.21519 
L 155.957712 197.054128 
L 155.996169 197.043513 
L 156.380745 193.031981 
L 156.496117 192.006621 
L 156.534575 192.110192 
L 156.91915 198.555987 
L 156.957607 198.347126 
L 157.07298 196.417881 
L 157.188353 194.161973 
L 157.22681 194.794733 
L 157.342183 198.223008 
L 157.419098 197.755947 
L 157.572928 195.454616 
L 157.688301 191.526389 
L 157.726758 192.679956 
L 158.072876 205.108454 
L 158.111333 205.499778 
L 158.149791 204.947237 
L 158.303621 196.066634 
L 158.534366 183.433527 
L 158.611281 184.226509 
L 158.918941 189.83853 
L 158.957399 189.425245 
L 158.995856 188.889223 
L 159.034314 189.019785 
L 159.226602 190.673592 
L 159.303517 190.884722 
L 159.611177 197.989267 
L 159.841922 212.636347 
L 160.111125 240.488736 
L 160.18804 261.410707 
L 160.226497 254.035514 
L 160.380327 135.235956 
L 160.418785 143.716988 
L 160.611073 164.176017 
L 160.918733 186.803066 
L 161.226393 201.498289 
L 161.380223 203.202887 
L 161.418681 203.193575 
L 161.457138 203.084092 
L 161.495596 203.288897 
L 161.610968 204.435197 
L 161.649426 204.18994 
L 162.149374 196.670831 
L 162.226289 197.279329 
L 162.303204 197.566221 
L 162.380119 196.734098 
L 162.687779 190.892536 
L 162.726237 191.304028 
L 162.956982 195.234639 
L 162.995439 195.144187 
L 163.264642 187.837211 
L 163.341557 188.56078 
L 163.495387 196.653239 
L 163.687675 204.223972 
L 163.803048 199.682941 
L 164.033793 188.303985 
L 164.07225 188.769178 
L 164.418368 199.651897 
L 164.533741 199.160535 
L 164.802943 197.007799 
L 165.033688 192.93992 
L 165.187519 191.054738 
L 165.302891 193.451172 
L 165.379806 192.749625 
L 165.456721 195.207694 
L 165.572094 199.393811 
L 165.610551 199.241567 
L 165.649009 199.045565 
L 165.687466 199.07749 
L 165.764381 199.294348 
L 165.841297 197.98598 
L 166.148957 190.989397 
L 166.187414 190.983106 
L 166.610447 196.477996 
L 166.764277 197.663971 
L 166.802735 197.464469 
L 166.956565 195.644401 
L 166.995022 195.954169 
L 167.03348 196.321887 
L 167.071937 196.263071 
L 167.18731 194.61341 
L 167.225768 194.782477 
L 167.302683 195.264647 
L 167.34114 195.022638 
L 167.418055 194.507886 
L 167.456513 194.579952 
L 167.571885 195.345621 
L 167.610343 195.250136 
L 167.764173 193.951158 
L 167.80263 194.070928 
L 167.918003 194.582592 
L 168.033376 196.382194 
L 168.071833 196.267546 
L 168.187206 195.127145 
L 168.225663 195.400262 
L 168.302578 195.942689 
L 168.456408 193.061567 
L 168.494866 193.89549 
L 168.648696 199.108311 
L 168.687154 198.479841 
L 168.917899 190.991989 
L 168.994814 192.498916 
L 169.340932 201.405811 
L 169.379389 201.312739 
L 169.456304 199.305497 
L 169.725507 188.198998 
L 169.763964 188.203511 
L 169.956252 192.278362 
L 170.14854 198.983999 
L 170.186997 198.586738 
L 170.263912 196.827455 
L 170.30237 196.902857 
L 170.379285 197.877241 
L 170.417742 197.470389 
L 170.686945 191.479949 
L 170.725403 192.155602 
L 170.879233 193.319595 
L 171.033063 195.377933 
L 171.340723 201.045498 
L 171.379181 201.152677 
L 171.456096 199.216892 
L 171.648383 193.044213 
L 171.763756 194.081621 
L 171.840671 194.88216 
L 171.879128 194.666487 
L 171.917586 194.363359 
L 171.956044 194.438322 
L 172.032959 195.380462 
L 172.071416 195.354885 
L 172.148331 194.665379 
L 172.186789 194.82863 
L 172.263704 195.466018 
L 172.340619 195.301819 
L 172.609821 193.457961 
L 172.686737 192.695842 
L 172.725194 192.806711 
L 172.763652 192.873543 
L 172.802109 192.766177 
L 172.840567 192.673952 
L 172.879024 192.865839 
L 172.994397 194.225652 
L 173.032854 193.683601 
L 173.148227 191.607062 
L 173.186684 191.775406 
L 173.225142 191.783163 
L 173.302057 190.826338 
L 173.340515 190.849256 
L 173.532802 197.552894 
L 173.648175 201.39565 
L 173.686632 200.766538 
L 173.955835 196.099579 
L 174.03275 197.792007 
L 174.18658 201.687557 
L 174.225038 201.456932 
L 174.417325 199.124423 
L 174.455783 199.331428 
L 174.571155 200.996847 
L 174.763443 205.794873 
L 174.801901 205.093255 
L 175.224933 178.514658 
L 175.647966 135.488607 
L 175.686424 142.35414 
L 175.840254 257.123824 
L 175.878711 247.204081 
L 176.032541 233.075938 
L 176.378659 204.777139 
L 176.724777 193.559761 
L 176.801692 193.891614 
L 177.109352 184.01186 
L 177.340097 178.184236 
L 177.647758 169.637418 
L 177.76313 169.716303 
L 177.840045 153.171234 
L 177.878503 161.791874 
L 178.032333 274.476041 
L 178.07079 263.541699 
L 178.263078 235.291616 
L 178.570738 172.990079 
L 178.609196 157.707526 
L 178.647653 159.290819 
L 178.763026 247.563204 
L 178.839941 227.701925 
L 179.109144 129.981215 
L 179.224516 197.083738 
L 179.262974 193.553878 
L 179.378346 114.227533 
L 179.455262 132.090768 
L 179.686007 193.309233 
L 179.762922 205.150527 
L 179.839837 235.758429 
L 179.878294 233.573438 
L 180.032124 143.929454 
L 180.070582 159.469504 
L 180.301327 214.292728 
L 180.801275 296.684485 
L 180.993563 324.39791 
L 181.03202 313.796431 
L 181.18585 183.002381 
L 181.262765 191.296923 
L 181.455053 170.260669 
L 181.685798 98.291813 
L 181.777347 -1 
M 182.122958 -1 
L 182.224204 17.479783 
L 182.454949 131.16887 
L 182.786505 346.6 
M 183.466541 346.6 
L 183.481116 -1 
M 184.086436 -1 
L 184.416283 297.833316 
L 184.528871 346.6 
M 185.010247 346.6 
L 185.916126 140.912045 
L 185.993041 137.870752 
L 186.069956 138.074034 
L 186.108414 137.21855 
L 186.146871 137.420405 
L 186.416074 148.006037 
L 187.146767 212.371692 
L 187.185225 212.664325 
L 187.223682 212.312166 
L 187.608258 209.369804 
L 187.646715 209.407375 
L 187.992833 207.127514 
L 188.492781 190.2014 
L 188.531238 190.243175 
L 188.608153 190.646852 
L 188.646611 190.414953 
L 188.685068 190.527032 
L 188.877356 192.376543 
L 188.992729 192.456109 
L 189.146559 191.419593 
L 189.185016 191.681892 
L 189.223474 191.849776 
L 189.261931 191.590299 
L 189.415761 189.803562 
L 189.454219 189.954832 
L 189.492676 189.875686 
L 189.608049 188.352063 
L 189.684964 188.601612 
L 189.800337 187.718695 
L 189.838794 188.092861 
L 190.300284 194.594937 
L 190.800232 217.486398 
L 191.030978 234.381321 
L 191.107893 255.445459 
L 191.14635 248.290674 
L 191.30018 134.347854 
L 191.338638 144.1213 
L 191.492468 159.81953 
L 191.761671 184.581798 
L 192.415449 211.43241 
L 192.453906 210.946172 
L 192.646194 200.854929 
L 192.838481 195.714705 
L 193.107684 198.424321 
L 193.184599 199.618874 
L 193.223057 199.562167 
L 193.453802 195.41732 
L 193.723005 190.818211 
L 193.95375 189.09689 
L 193.992207 189.225479 
L 194.184495 193.274062 
L 194.41524 197.603033 
L 194.492155 197.449506 
L 194.607528 198.196504 
L 194.761358 194.83034 
L 194.838273 195.7741 
L 195.03056 197.785075 
L 195.145933 198.399712 
L 195.184391 198.054986 
L 195.338221 195.530153 
L 195.376678 195.834596 
L 195.415136 195.941446 
L 195.915084 191.99482 
L 195.953541 192.189781 
L 196.068914 193.68557 
L 196.107371 193.393803 
L 196.261201 193.035777 
L 196.338116 192.687638 
L 196.376574 192.716796 
L 196.491947 193.838915 
L 196.568862 193.616433 
L 196.607319 193.671351 
L 196.684234 194.06547 
L 196.722692 193.984553 
L 196.761149 193.903276 
L 196.799607 193.98089 
L 196.914979 194.223068 
L 197.299555 201.064992 
L 197.338012 201.044233 
L 197.37647 200.907767 
L 197.414927 201.127474 
L 197.645672 204.123226 
L 197.68413 204.186473 
L 197.722587 204.046578 
L 197.799503 203.675309 
L 198.030248 199.792009 
L 198.068705 199.856902 
L 198.107163 199.888557 
L 198.184078 197.836759 
L 198.376365 181.51925 
L 198.684026 154.637811 
L 198.722483 156.283158 
L 198.760941 154.611367 
L 198.837856 137.910187 
L 198.876313 146.213636 
L 199.030143 260.395422 
L 199.068601 249.431571 
L 199.260889 223.220056 
L 199.530091 204.320611 
L 199.914667 192.005475 
L 200.068497 188.252626 
L 200.299242 184.492194 
L 200.337699 184.534119 
L 200.491529 186.092795 
L 200.837647 197.042989 
L 200.95302 200.270238 
L 200.991477 199.581717 
L 201.26068 196.015724 
L 201.376053 195.508294 
L 201.41451 195.3859 
L 201.452968 195.446191 
L 201.837543 197.562219 
L 201.876 197.231603 
L 201.952916 196.690279 
L 201.991373 196.818349 
L 202.029831 196.840393 
L 202.106746 196.446779 
L 202.145203 196.738458 
L 202.222118 197.638279 
L 202.260576 197.468503 
L 202.645151 191.999677 
L 202.722066 192.699881 
L 203.106641 200.501302 
L 203.183556 200.608686 
L 203.222014 200.527669 
L 203.337387 197.817024 
L 203.683504 186.555857 
L 203.721962 186.606266 
L 203.914249 192.256297 
L 204.106537 197.291969 
L 204.22191 196.5702 
L 204.298825 196.033183 
L 204.337282 196.195879 
L 204.414197 196.724079 
L 204.452655 196.516944 
L 204.760315 193.659127 
L 204.798773 193.843868 
L 204.99106 199.387307 
L 205.221805 208.125414 
L 205.260263 207.614503 
L 205.760211 194.709398 
L 205.798668 194.83324 
L 205.837126 195.245744 
L 205.875583 195.241713 
L 205.990956 191.477524 
L 206.298616 171.442852 
L 206.567819 134.453914 
L 206.606276 140.923345 
L 206.760107 252.199659 
L 206.798564 242.291573 
L 206.952394 229.726458 
L 207.260054 208.263346 
L 207.529257 192.854675 
L 207.721545 187.333577 
L 207.913832 185.480652 
L 207.95229 185.587846 
L 208.452238 192.125772 
L 208.529153 192.071712 
L 208.606068 192.578007 
L 209.029101 198.835341 
L 209.144473 198.485603 
L 209.259846 197.194578 
L 209.298303 197.73118 
L 209.413676 199.350856 
L 209.452134 199.126588 
L 209.490591 198.988618 
L 209.529049 199.055525 
L 209.567506 199.156773 
L 209.605964 199.043048 
L 209.759794 196.292221 
L 209.990539 193.247043 
L 210.067454 192.924606 
L 210.105912 192.964596 
L 210.221284 193.481777 
L 210.336657 192.803127 
L 210.528944 195.413388 
L 210.605859 195.118281 
L 210.644317 195.10675 
L 210.721232 196.677607 
L 210.798147 198.753035 
L 210.836605 198.52528 
L 211.028892 191.319738 
L 211.105807 189.253045 
L 211.144265 189.43523 
L 211.259637 192.561482 
L 211.490383 199.157369 
L 211.68267 200.456591 
L 211.721128 200.454516 
L 211.913415 197.627195 
L 212.028788 196.29246 
L 212.067245 196.748662 
L 212.105703 197.160306 
L 212.144161 197.046518 
L 212.336448 192.479781 
L 212.413363 193.482605 
L 212.528736 194.374048 
L 212.567193 194.312759 
L 212.682566 193.69918 
L 213.220971 186.149646 
L 213.259429 186.477844 
L 213.605547 194.782251 
L 214.028579 220.705907 
L 214.297782 252.566042 
L 214.33624 244.99827 
L 214.49007 130.966089 
L 214.528527 141.840643 
L 214.682357 159.359119 
L 215.028475 190.528598 
L 215.374593 208.673672 
L 215.489966 207.328516 
L 215.528423 207.583458 
L 215.720711 209.222641 
L 215.759168 209.182055 
L 215.797626 209.081529 
L 215.836083 209.221552 
L 215.951456 211.434775 
L 215.989913 210.499281 
L 216.220659 192.457864 
L 216.489861 175.370616 
L 216.605234 173.956067 
L 216.682149 172.303779 
L 216.759064 172.503729 
L 216.835979 172.378882 
L 216.874437 172.537194 
L 216.989809 174.883176 
L 217.220554 190.222032 
L 217.451299 225.033501 
L 217.566672 267.579629 
L 217.60513 264.105994 
L 217.874332 133.834148 
L 217.91279 135.730052 
L 218.22045 285.517962 
L 218.52811 213.177476 
L 219.335718 123.319756 
L 219.374176 123.264931 
L 219.451091 120.849624 
L 219.489548 121.007614 
L 219.720294 136.623173 
L 219.874124 164.324651 
L 220.143326 236.338034 
L 220.482332 346.6 
M 221.03817 346.6 
L 221.297052 159.026594 
L 221.499252 -1 
M 222.117272 -1 
L 222.129591 346.6 
M 222.792162 346.6 
L 223.170387 -1 
M 223.562955 -1 
L 223.719877 44.991885 
L 224.373655 239.242851 
L 224.6044 261.218638 
L 224.642857 261.814253 
L 224.681315 260.986626 
L 224.719772 261.013686 
L 224.75823 261.694268 
L 224.796687 260.678454 
L 225.258178 219.774751 
L 225.68121 185.35917 
L 225.911956 175.548799 
L 225.950413 175.560189 
L 226.219616 181.660264 
L 226.258073 180.750374 
L 226.411904 175.805016 
L 226.450361 176.302099 
L 226.719564 191.931304 
L 226.873394 198.149489 
L 226.911851 197.555516 
L 227.065682 189.649881 
L 227.219512 184.494932 
L 227.257969 184.670601 
L 227.373342 185.570102 
L 228.142492 213.255605 
L 228.680898 226.769671 
L 228.719355 227.072448 
L 228.834728 221.942173 
L 228.9501 208.36513 
L 229.373133 124.951621 
L 229.680793 36.744686 
L 229.714438 -1 
M 229.802432 -1 
L 229.893713 346.6 
M 230.038339 346.6 
L 230.449944 241.975625 
L 230.796062 177.307172 
L 231.026807 160.432864 
L 231.180637 157.764153 
L 231.219095 158.655795 
L 231.411382 169.921331 
L 232.180533 208.850468 
L 232.21899 208.456528 
L 232.411278 204.688728 
L 232.642023 199.376909 
L 232.680481 199.482377 
L 232.834311 203.595084 
L 232.911226 202.369997 
L 233.026598 201.33503 
L 233.065056 201.454133 
L 233.103513 201.40155 
L 233.218886 198.349393 
L 233.372716 193.388223 
L 233.411174 193.512062 
L 233.449631 193.511784 
L 233.680376 188.497698 
L 233.795749 189.438339 
L 233.988037 194.619732 
L 234.103409 194.566231 
L 234.141867 194.493242 
L 234.257239 193.335183 
L 234.295697 193.612309 
L 234.411069 195.176454 
L 234.449527 195.075282 
L 234.603357 193.963887 
L 234.641815 194.16213 
L 234.949475 197.185759 
L 235.02639 196.929642 
L 235.141762 198.394146 
L 235.18022 198.228288 
L 235.449423 194.684023 
L 235.48788 194.714298 
L 235.64171 195.652123 
L 235.680168 195.325786 
L 235.757083 194.910464 
L 235.872455 196.561267 
L 235.949371 196.208356 
L 236.064743 195.632471 
L 236.103201 195.67776 
L 236.180116 195.797241 
L 236.257031 194.959586 
L 236.372403 193.714604 
L 236.410861 194.059459 
L 236.641606 196.61947 
L 236.680064 196.193058 
L 236.833894 191.865968 
L 236.910809 192.548034 
L 237.141554 198.44095 
L 237.256927 201.596218 
L 237.295384 201.418274 
L 237.603044 190.100874 
L 237.718417 191.156626 
L 237.872247 195.603335 
L 238.064535 199.484179 
L 238.102992 199.581144 
L 238.179907 198.543581 
L 238.487567 192.696565 
L 238.564482 192.37951 
L 238.60294 192.481515 
L 238.679855 192.723116 
L 238.718313 192.541452 
L 238.75677 192.453933 
L 238.833685 193.984689 
L 239.025973 197.118757 
L 239.21826 199.452109 
L 239.295176 198.090623 
L 239.525921 193.53499 
L 239.602836 193.186934 
L 239.641293 193.426124 
L 239.910496 195.326607 
L 239.948953 195.068049 
L 239.987411 194.725806 
L 240.025869 194.927409 
L 240.141241 198.05668 
L 240.179699 197.685949 
L 240.371986 194.36032 
L 240.448901 194.4777 
L 240.641189 195.178586 
L 240.679647 195.088675 
L 240.833477 193.895081 
L 240.871934 194.140102 
L 241.179594 196.650654 
L 241.218052 196.874799 
L 241.256509 196.84902 
L 241.41034 194.911926 
L 241.525712 192.766341 
L 241.56417 193.115816 
L 241.756457 197.767183 
L 241.794915 197.602428 
L 241.910287 194.453662 
L 242.064118 190.909216 
L 242.102575 191.000909 
L 242.217948 193.605905 
L 242.371778 198.289625 
L 242.448693 198.110602 
L 242.564065 198.89134 
L 242.602523 198.619895 
L 242.794811 194.621624 
L 242.833268 195.197609 
L 243.140928 202.075806 
L 243.256301 200.149039 
L 243.448589 194.295254 
L 243.679334 187.498508 
L 243.948536 182.718371 
L 244.063909 183.864949 
L 244.217739 189.880587 
L 244.410027 195.145901 
L 244.525399 196.443513 
L 244.756145 206.507647 
L 244.98689 226.134668 
L 245.217635 256.05247 
L 245.256092 249.497901 
L 245.409922 134.454536 
L 245.44838 144.220373 
L 245.60221 160.827316 
L 245.871413 180.742926 
L 246.332903 202.595549 
L 246.371361 202.691044 
L 246.563648 204.306237 
L 246.602106 204.266068 
L 246.909766 202.970855 
L 247.063596 197.218251 
L 247.178969 195.030641 
L 247.217426 195.287659 
L 247.409714 197.471136 
L 247.448171 196.974498 
L 247.717374 187.880675 
L 247.794289 188.845973 
L 248.063492 200.604327 
L 248.140407 198.674475 
L 248.448067 188.683645 
L 248.486525 189.311791 
L 248.909558 197.679795 
L 249.02493 198.447486 
L 249.063388 198.409643 
L 249.140303 198.483339 
L 249.255675 196.612123 
L 249.524878 193.189267 
L 249.601793 193.021585 
L 249.794081 194.742236 
L 249.986368 198.606486 
L 250.063283 197.551804 
L 250.294029 195.36247 
L 250.332486 195.511331 
L 250.370944 195.475552 
L 250.486316 193.643383 
L 250.563231 194.053875 
L 250.601689 194.369545 
L 250.640146 194.282217 
L 250.717061 193.801725 
L 250.755519 194.040205 
L 250.870892 194.828234 
L 250.909349 194.682837 
L 250.947807 194.669363 
L 251.101637 196.650142 
L 251.178552 196.137363 
L 251.255467 195.723283 
L 251.293924 195.930034 
L 251.332382 196.055537 
L 251.370839 195.881435 
L 251.563127 194.968628 
L 251.755415 194.639499 
L 251.947702 195.163067 
L 252.063075 197.23461 
L 252.13999 196.520764 
L 252.255363 195.060354 
L 252.29382 195.094417 
L 252.370735 195.099464 
L 252.486108 195.656877 
L 252.60148 193.462266 
L 252.678395 194.210238 
L 252.75531 194.738358 
L 252.793768 194.533635 
L 252.832225 194.631432 
L 253.024513 196.150582 
L 253.062971 196.134059 
L 253.178343 194.664614 
L 253.216801 194.272701 
L 253.255258 194.39031 
L 253.447546 198.723291 
L 253.524461 197.403087 
L 253.678291 190.897195 
L 253.755206 188.837247 
L 253.793664 189.434908 
L 254.139781 203.48169 
L 254.255154 200.989513 
L 254.562814 188.454353 
L 254.601272 188.689046 
L 255.178135 200.176646 
L 255.25505 199.222715 
L 255.678083 192.097916 
L 255.754998 191.338719 
L 255.793455 191.534718 
L 256.101115 197.202804 
L 256.139573 196.935752 
L 256.216488 196.508227 
L 256.254945 196.732706 
L 256.408776 197.872925 
L 256.447233 197.81202 
L 256.639521 195.935322 
L 256.677978 196.365345 
L 256.754893 197.165738 
L 256.793351 196.700791 
L 256.908723 195.377883 
L 256.947181 195.571631 
L 257.062554 195.814684 
L 257.139469 196.30146 
L 257.177926 195.981811 
L 257.370214 193.18888 
L 257.408671 193.353469 
L 257.485586 194.117698 
L 257.562501 193.820102 
L 257.600959 193.59755 
L 257.639416 193.710297 
L 257.716332 194.232714 
L 257.754789 194.081146 
L 257.831704 193.686417 
L 257.870162 193.943386 
L 257.985534 194.710862 
L 258.293194 192.274255 
L 258.331652 192.34485 
L 258.600855 194.974386 
L 258.67777 194.415486 
L 258.716227 194.560003 
L 259.29309 203.342019 
L 259.331548 203.197576 
L 259.44692 202.11985 
L 259.485378 202.330262 
L 259.60075 202.716003 
L 259.716123 203.641873 
L 259.754581 203.555833 
L 259.831496 203.445657 
L 259.908411 202.236631 
L 260.100698 188.064537 
L 260.677561 139.283249 
L 260.716019 145.785567 
L 260.869849 258.232578 
L 260.908306 248.208368 
L 261.100594 223.857962 
L 261.369797 201.78248 
L 261.638999 193.608135 
L 261.677457 193.914115 
L 261.715914 193.844168 
L 261.831287 191.414899 
L 262.062032 185.985964 
L 262.10049 185.73809 
L 262.138947 185.91836 
L 262.446608 190.69388 
L 262.71581 194.247232 
L 262.86964 195.911012 
L 262.985013 197.299525 
L 263.02347 197.141633 
L 263.138843 196.654326 
L 263.215758 196.017034 
L 263.254216 196.466291 
L 263.331131 197.328753 
L 263.369588 197.108493 
L 263.408046 196.978974 
L 263.561876 198.685676 
L 263.638791 198.048273 
L 263.715706 197.596465 
L 263.754163 197.773862 
L 263.792621 197.957253 
L 263.831079 197.878664 
L 264.254111 193.880734 
L 264.292569 194.335142 
L 264.484857 195.700556 
L 264.600229 193.417854 
L 264.754059 189.768791 
L 264.792517 190.58621 
L 265.177092 202.582371 
L 265.21555 201.960585 
L 265.561667 189.739478 
L 265.600125 190.279642 
L 266.061615 199.330851 
L 266.176988 197.960823 
L 266.44619 192.869687 
L 266.523106 193.33241 
L 266.561563 193.186582 
L 266.638478 192.210975 
L 266.676936 192.388808 
L 267.023053 199.459444 
L 267.061511 199.423881 
L 267.176884 196.905764 
L 267.369171 193.425081 
L 267.407629 193.503573 
L 267.715289 195.119235 
L 267.792204 194.763629 
L 267.830661 194.986557 
L 267.946034 195.999867 
L 267.984492 195.830941 
L 268.099864 195.129508 
L 268.138322 195.166356 
L 268.215237 195.09304 
L 268.253694 195.036445 
L 268.292152 195.15074 
L 268.407524 196.09467 
L 268.445982 196.069403 
L 268.753642 193.701236 
L 268.7921 193.839812 
L 269.176675 196.894588 
L 269.215132 197.028734 
L 269.25359 196.773946 
L 269.368963 195.955621 
L 269.40742 195.996846 
L 269.484335 195.781157 
L 269.599708 194.566638 
L 269.71508 193.12556 
L 269.753538 193.339287 
L 269.945826 195.292152 
L 269.984283 195.020292 
L 270.176571 192.773438 
L 270.253486 191.415302 
L 270.291943 192.387589 
L 270.638061 203.596626 
L 270.753434 199.562765 
L 271.022636 189.275558 
L 271.061094 189.431519 
L 271.214924 193.294028 
L 271.484127 199.241581 
L 271.714872 196.667565 
L 271.907159 192.181247 
L 271.984075 192.740156 
L 272.06099 193.280483 
L 272.253277 191.071902 
L 272.291735 191.452446 
L 272.599395 198.035126 
L 272.637853 197.957492 
L 272.791683 195.456655 
L 272.868598 195.743468 
L 272.945513 195.099008 
L 273.022428 194.250669 
L 273.060885 194.671162 
L 273.176258 195.954135 
L 273.214715 195.825089 
L 273.29163 196.917644 
L 273.407003 198.926267 
L 273.445461 198.423759 
L 273.522376 197.513969 
L 273.560833 197.722073 
L 273.637748 198.269131 
L 273.676206 198.201463 
L 273.945408 196.689678 
L 274.022324 197.09852 
L 274.060781 197.019965 
L 274.445356 191.492006 
L 274.483814 191.852073 
L 274.522271 192.153234 
L 274.560729 191.879557 
L 274.868389 186.931805 
L 274.906847 186.652644 
L 274.945304 186.68024 
L 275.060677 187.346987 
L 275.099134 187.213481 
L 275.176049 187.81485 
L 275.329879 190.831187 
L 275.560625 199.926208 
L 275.9452 229.09515 
L 275.983657 228.343771 
L 276.022115 226.618345 
L 276.09903 242.208409 
L 276.137488 253.543002 
L 276.175945 247.521599 
L 276.329775 138.471496 
L 276.368233 149.800836 
L 276.522063 167.115139 
L 276.829723 179.009148 
L 277.022011 190.504477 
L 277.329671 205.98203 
L 277.483501 207.44991 
L 277.521959 207.241979 
L 278.021906 196.644316 
L 278.214194 195.374118 
L 278.368024 197.164943 
L 278.521854 196.861087 
L 278.598769 195.817063 
L 278.7526 191.578398 
L 278.791057 192.011365 
L 278.829515 192.374509 
L 278.867972 192.222137 
L 278.983345 191.040407 
L 279.021802 191.199769 
L 279.483293 195.113835 
L 279.52175 194.595949 
L 279.598665 193.908458 
L 279.714038 196.413991 
L 279.752495 196.061042 
L 279.82941 195.441228 
L 279.906325 196.714204 
L 279.944783 196.638536 
L 280.021698 195.357897 
L 280.060155 195.429348 
L 280.175528 197.816298 
L 280.213986 197.619012 
L 280.290901 196.350397 
L 280.329358 196.397896 
L 280.406273 197.312346 
L 280.444731 197.189885 
L 280.752391 194.184546 
L 280.867764 195.289413 
L 280.944679 195.132935 
L 281.098509 194.450412 
L 281.136966 194.540584 
L 281.213881 194.792356 
L 281.329254 193.779414 
L 281.367711 193.931046 
L 281.559999 196.654068 
L 281.636914 196.098979 
L 281.829202 194.186367 
L 281.906117 193.005524 
L 281.944574 193.893076 
L 282.059947 195.920693 
L 282.098404 195.84791 
L 282.17532 197.383658 
L 282.290692 200.372221 
L 282.32915 199.769707 
L 282.675267 188.790977 
L 282.713725 189.090953 
L 283.059843 198.796511 
L 283.0983 198.719943 
L 283.213673 198.625644 
L 283.444418 195.932133 
L 283.675163 191.105178 
L 283.713621 191.101533 
L 284.213569 199.949463 
L 284.290484 198.580959 
L 284.521229 193.702886 
L 284.559686 193.806538 
L 284.675059 195.132387 
L 284.713516 194.742956 
L 284.751974 194.441641 
L 284.790431 194.694248 
L 284.867347 195.755834 
L 284.905804 195.547704 
L 284.982719 194.649017 
L 285.021177 194.907624 
L 285.136549 196.404016 
L 285.175007 196.11205 
L 285.251922 195.58694 
L 285.290379 195.813284 
L 285.328837 196.047725 
L 285.367294 195.88332 
L 285.521124 193.808534 
L 285.559582 194.023398 
L 285.944157 195.322608 
L 286.05953 196.810404 
L 286.097987 196.349554 
L 286.21336 194.86315 
L 286.251818 194.960254 
L 286.290275 194.959706 
L 286.36719 194.579953 
L 286.405648 194.593491 
L 286.482563 194.884439 
L 286.52102 194.856663 
L 286.636393 194.508951 
L 286.67485 194.631336 
L 286.790223 195.134364 
L 286.82868 195.016714 
L 286.867138 194.988561 
L 287.174798 196.745009 
L 287.213256 196.647147 
L 287.328628 195.112463 
L 287.367086 195.763853 
L 287.482458 198.432423 
L 287.559373 198.253982 
L 287.636289 198.434316 
L 287.713204 196.688945 
L 287.828576 193.827542 
L 287.867034 194.398505 
L 288.174694 200.288504 
L 288.251609 199.090291 
L 288.559269 184.187024 
L 288.597727 184.916869 
L 288.790014 195.387544 
L 288.905387 199.530511 
L 288.943845 199.528526 
L 289.059217 198.53647 
L 289.443792 191.689769 
L 289.48225 191.55492 
L 289.674538 194.020305 
L 290.09757 204.129791 
L 290.212943 207.654266 
L 290.2514 207.079659 
L 290.328316 205.256432 
L 290.405231 205.766758 
L 290.482146 204.271028 
L 290.712891 199.538213 
L 291.059009 186.561803 
L 291.366669 163.095171 
L 291.597414 131.179611 
L 291.635871 137.880025 
L 291.789702 253.376333 
L 291.828159 242.915177 
L 291.981989 228.766075 
L 292.251192 210.463636 
L 292.44348 204.745629 
L 292.90497 196.196032 
L 292.981885 194.803783 
L 293.020342 194.923747 
L 293.0588 195.452442 
L 293.097258 195.245334 
L 293.36646 184.9512 
L 293.635663 167.105272 
L 293.67412 166.072153 
L 293.789493 136.683045 
L 293.827951 141.216725 
L 293.981781 241.208692 
L 294.020238 227.466784 
L 294.212526 191.215152 
L 294.366356 159.188691 
L 294.404814 145.462878 
L 294.443271 149.436191 
L 294.750931 300.559675 
L 295.173964 169.484062 
L 295.366252 106.298245 
L 295.404709 125.955809 
L 295.481624 179.388717 
L 295.520082 179.308592 
L 295.635454 107.073465 
L 295.712369 130.39887 
L 295.981572 220.168463 
L 296.135402 269.009447 
L 296.17386 244.118514 
L 296.289232 183.489624 
L 296.32769 198.283182 
L 296.519978 232.249803 
L 296.750723 250.600394 
L 296.78918 251.386203 
L 296.866095 250.707042 
L 296.904553 250.503941 
L 297.09684 234.939806 
L 297.442958 167.945582 
L 297.865991 85.337531 
L 297.942906 79.05106 
L 298.019821 92.904217 
L 298.058279 83.852605 
L 298.210244 -1 
M 298.414211 -1 
L 298.721658 346.6 
M 299.416343 346.6 
L 299.429147 -1 
M 300.020491 -1 
L 300.327273 301.992657 
L 300.404188 339.884982 
L 300.442645 333.834153 
L 300.481103 328.065928 
L 300.522265 346.6 
M 300.950642 346.6 
L 301.673286 141.901499 
L 301.904032 126.77557 
L 301.942489 127.243017 
L 302.288607 150.274668 
L 302.827012 201.394736 
L 303.057757 206.435853 
L 303.288503 210.818289 
L 303.365418 211.818912 
L 303.403875 211.690881 
L 303.980738 202.915922 
L 304.019196 203.389906 
L 304.557601 209.133431 
L 304.596059 208.600411 
L 304.749889 206.603026 
L 304.865261 202.417711 
L 305.480582 162.042247 
L 305.788242 138.294188 
L 305.865157 138.545838 
L 306.018987 140.761889 
L 306.211275 162.822322 
L 306.518935 253.357756 
L 306.717676 346.6 
M 307.133763 346.6 
L 307.179544 -1 
M 307.499098 -1 
L 307.788033 140.110372 
L 308.134151 232.493871 
L 308.441811 256.470349 
L 308.557184 254.747523 
L 308.711014 243.62451 
L 309.018674 211.484849 
L 309.40325 184.065453 
L 309.749367 175.55696 
L 309.787825 174.884358 
L 309.826282 175.036386 
L 310.287773 187.484196 
L 310.672348 201.157154 
L 310.710806 201.187862 
L 310.749263 200.848191 
L 310.787721 200.852647 
L 310.864636 201.542533 
L 310.903093 201.407501 
L 311.018466 200.500161 
L 311.056923 200.799253 
L 311.133838 201.186728 
L 311.172296 200.954478 
L 311.210753 200.887297 
L 311.326126 202.988166 
L 311.403041 202.216923 
L 311.556871 198.328169 
L 311.672244 193.956623 
L 311.710701 194.33386 
L 311.787616 194.946217 
L 311.864531 193.467951 
L 311.902989 193.625664 
L 312.056819 196.967291 
L 312.095277 196.486309 
L 312.249107 190.026312 
L 312.441394 184.076923 
L 312.556767 187.111751 
L 312.941342 200.704867 
L 313.056715 199.287728 
L 313.095172 199.582757 
L 313.172087 200.204993 
L 313.210545 199.939611 
L 313.249002 199.789199 
L 313.364375 201.21101 
L 313.44129 200.557789 
L 313.479748 200.18616 
L 313.518205 200.331341 
L 313.864323 205.190993 
L 313.90278 205.111311 
L 314.05661 201.160314 
L 314.364271 179.331766 
L 314.787304 134.983825 
L 314.825761 141.887526 
L 314.979591 256.56488 
L 315.018049 246.361539 
L 315.171879 230.90847 
L 315.479539 204.301903 
L 315.787199 192.453186 
L 315.979487 188.799868 
L 316.017944 188.867946 
L 316.056402 188.83832 
L 316.210232 185.838115 
L 316.287147 186.221679 
L 316.71018 192.057138 
L 316.748637 192.226265 
L 316.86401 189.122494 
L 316.940925 190.313321 
L 317.210128 204.556248 
L 317.287043 203.1558 
L 317.594703 193.054537 
L 317.710076 194.367769 
L 318.133108 199.643512 
L 318.210024 198.542623 
L 318.479226 193.061022 
L 318.517684 192.959314 
L 318.633056 194.189364 
L 318.671514 193.751265 
L 318.748429 192.686623 
L 318.786886 192.763462 
L 318.940717 195.249071 
L 319.094547 198.330892 
L 319.133004 198.08471 
L 319.286834 195.930618 
L 319.402207 193.555528 
L 319.440664 193.738273 
L 319.479122 193.643836 
L 319.594495 191.638841 
L 319.632952 191.733298 
L 319.748325 193.15112 
L 319.786782 192.891321 
L 319.863697 192.076791 
L 319.902155 192.268844 
L 320.055985 194.41268 
L 320.094442 194.008187 
L 320.171357 193.407443 
L 320.209815 193.524641 
L 320.517475 194.942269 
L 320.632848 196.01085 
L 320.671305 195.807681 
L 320.709763 195.748826 
L 320.825135 198.923282 
L 321.017423 201.780675 
L 321.094338 202.909837 
L 321.171253 204.419935 
L 321.209711 204.12832 
L 321.401998 202.532979 
L 321.440456 202.454582 
L 321.478913 202.624639 
L 321.594286 203.731704 
L 321.632744 203.176805 
L 321.901946 187.483172 
L 322.171149 175.102575 
L 322.209606 175.556703 
L 322.248064 175.331011 
L 322.440352 161.035404 
L 322.517267 136.781424 
L 322.555724 141.210408 
L 322.709554 250.163655 
L 322.748012 239.488733 
L 322.824927 226.817654 
L 322.863384 228.872586 
L 322.901842 228.695093 
L 323.24796 206.029886 
L 323.670993 187.465105 
L 323.901738 183.009467 
L 323.940195 183.168387 
L 324.132483 188.851007 
L 324.324771 194.440904 
L 324.593973 193.307546 
L 325.055464 198.172698 
L 325.209294 199.778596 
L 325.247751 199.659253 
L 325.978444 194.634777 
L 326.016902 194.669715 
L 326.093817 195.038806 
L 326.209189 193.392059 
L 326.286104 193.748544 
L 326.324562 194.018276 
L 326.36302 193.990536 
L 326.478392 193.309793 
L 326.51685 193.605653 
L 326.555307 193.916764 
L 326.593765 193.850311 
L 326.67068 193.129492 
L 326.709137 193.484172 
L 326.82451 195.963381 
L 326.862967 195.81979 
L 327.093713 193.284277 
L 327.13217 193.783882 
L 327.362915 197.921765 
L 327.401373 197.951834 
L 327.478288 197.028867 
L 327.670575 193.955149 
L 327.709033 194.162274 
L 327.785948 196.361492 
L 327.978236 204.720475 
L 328.016693 204.567892 
L 328.132066 200.594817 
L 328.439726 190.042252 
L 328.632014 189.388396 
L 328.670471 189.460863 
L 328.708929 189.483427 
L 328.747386 189.414415 
L 328.824301 189.343524 
L 328.901216 188.544204 
L 329.016589 186.835125 
L 329.055046 186.995169 
L 329.093504 187.290395 
L 329.131962 187.165627 
L 329.208877 186.203178 
L 329.247334 186.773256 
L 329.708824 201.944283 
L 330.24723 256.223937 
L 330.285687 248.517096 
L 330.439518 132.856768 
L 330.477975 143.095178 
L 330.631805 160.153995 
L 330.977923 186.857197 
L 331.324041 200.416955 
L 331.439413 202.618897 
L 331.554786 204.704607 
L 331.593243 204.476747 
L 331.977819 201.352753 
L 332.093191 199.196674 
L 332.131649 199.206231 
L 332.170106 199.327453 
L 332.208564 199.213612 
L 332.554682 193.044775 
L 332.631597 193.29729 
L 332.670054 193.339121 
L 332.746969 192.720001 
L 332.785427 192.243174 
L 332.823884 192.301083 
L 332.939257 193.966373 
L 333.016172 192.419339 
L 333.054629 192.780263 
L 333.170002 195.07514 
L 333.20846 194.177831 
L 333.285375 192.534521 
L 333.323832 192.735321 
L 333.400747 193.472403 
L 333.439205 193.258645 
L 333.631492 191.597214 
L 333.708407 192.681514 
L 333.97761 200.386187 
L 334.016068 200.467885 
L 334.092983 199.461741 
L 334.400643 189.716481 
L 334.477558 189.941723 
L 334.554473 191.077833 
L 334.900591 199.671491 
L 334.977506 199.750403 
L 335.131336 198.378575 
L 335.477454 194.072652 
L 335.554369 194.719295 
L 335.862029 200.762078 
L 335.900487 200.851625 
L 336.054317 196.156421 
L 336.477349 186.165847 
L 336.515807 185.630934 
L 336.592722 185.890838 
L 336.669637 186.039351 
L 337.131127 191.35892 
L 337.438788 203.0193 
L 337.900278 235.36232 
L 337.977193 257.392273 
L 338.015651 250.140785 
L 338.169481 134.313315 
L 338.207938 144.666003 
L 338.361768 159.599517 
L 338.823259 192.306114 
L 338.938631 194.765952 
L 339.323207 209.746243 
L 339.361664 209.620889 
L 339.515494 203.602846 
L 339.784697 194.132515 
L 339.938527 199.026788 
L 340.0539 197.735185 
L 340.092357 197.799848 
L 340.169272 198.641594 
L 340.20773 198.291628 
L 340.746135 188.514354 
L 340.784593 188.542367 
L 341.015338 192.434913 
L 341.207625 197.124176 
L 341.28454 198.390612 
L 341.322998 198.250706 
L 341.476828 196.449927 
L 341.515286 196.545167 
L 341.592201 196.699943 
L 341.707573 196.362779 
L 341.746031 196.52068 
L 341.938318 197.000405 
L 341.976776 196.973528 
L 342.015234 196.975026 
L 342.284436 198.577773 
L 342.669011 195.494762 
L 343.015129 186.11344 
L 343.168959 181.728565 
L 343.207417 182.795 
L 343.63045 199.888711 
L 343.78428 198.592024 
L 343.822737 199.009218 
L 344.09194 204.438194 
L 344.168855 203.863262 
L 344.322685 201.995589 
L 344.361143 202.008084 
L 344.438058 203.289865 
L 344.630345 208.520508 
L 344.70726 206.425663 
L 345.130293 181.596157 
L 345.361038 173.694321 
L 345.437954 169.924591 
L 345.707156 139.143673 
L 345.745614 145.539475 
L 345.899444 261.006308 
L 345.937901 251.616644 
L 346.130189 228.586465 
L 346.399392 204.838797 
L 346.937797 185.227808 
L 347.130085 183.257823 
L 347.168542 183.070681 
L 347.207 183.125737 
L 347.97615 197.648834 
L 348.053065 196.748762 
L 348.091523 196.921943 
L 348.206896 198.361467 
L 348.245353 198.073284 
L 348.437641 197.168252 
L 348.476098 197.329296 
L 348.553013 198.113832 
L 348.591471 197.756487 
L 348.668386 196.622548 
L 348.706843 196.890714 
L 348.937589 198.8588 
L 348.976046 198.691431 
L 349.168334 195.916531 
L 349.206791 196.079729 
L 349.245249 196.199404 
L 349.322164 194.840486 
L 349.437536 192.458083 
L 349.475994 193.316673 
L 349.745197 198.381755 
L 349.822112 195.871754 
L 350.014399 191.126255 
L 350.091314 190.356411 
L 350.129772 191.031708 
L 350.398975 200.081646 
L 350.514347 196.420543 
L 350.78355 188.528592 
L 350.822007 188.651366 
L 351.129668 194.093323 
L 351.168125 194.007695 
L 351.206583 193.857339 
L 351.24504 194.029558 
L 351.783446 201.69147 
L 351.937276 201.231098 
L 351.975733 201.202261 
L 352.014191 201.288981 
L 352.168021 202.514803 
L 352.283394 204.518508 
L 352.321851 204.296183 
L 352.437224 203.579938 
L 352.591054 198.669963 
L 353.206374 166.622856 
L 353.437119 133.990121 
L 353.475577 140.332018 
L 353.629407 254.529972 
L 353.667865 244.781248 
L 353.821695 230.934306 
L 354.20627 201.384171 
L 354.552388 190.580456 
L 354.898505 184.121433 
L 354.936963 183.759346 
L 354.975421 184.019013 
L 355.321538 189.210103 
L 355.436911 190.615639 
L 355.629199 197.837065 
L 355.859944 205.254815 
L 355.898401 204.538142 
L 356.244519 192.105188 
L 356.436807 194.653865 
L 356.629094 199.330196 
L 356.667552 199.311209 
L 356.744467 198.610587 
L 356.859839 196.381197 
L 356.936754 196.648737 
L 356.975212 196.396226 
L 357.129042 192.504875 
L 357.205957 192.975413 
L 357.244415 192.989579 
L 357.359787 192.126389 
L 357.398245 192.258662 
L 357.859735 196.136558 
L 357.898193 196.254195 
L 358.052023 194.19945 
L 358.128938 194.793882 
L 358.24431 196.000653 
L 358.282768 195.991148 
L 358.359683 196.282007 
L 358.551971 198.626085 
L 358.628886 200.322332 
L 358.667343 200.136343 
L 358.782716 198.371723 
L 358.859631 198.426084 
L 359.436494 192.619091 
L 359.628781 189.355891 
L 359.744154 189.496253 
L 359.859527 188.216969 
L 359.974899 187.295137 
L 360.013357 187.440844 
L 360.090272 186.187529 
L 360.167187 184.892102 
L 360.205644 185.926366 
L 360.89788 221.803406 
L 361.167083 260.785925 
L 361.20554 253.222486 
L 361.35937 133.088573 
L 361.397828 141.739897 
L 361.551658 156.080086 
L 361.897776 188.654544 
L 362.128521 199.097819 
L 362.320808 198.600694 
L 362.436181 199.932526 
L 362.513096 200.398128 
L 362.551554 200.166688 
L 362.705384 199.535 
L 362.743841 199.500929 
L 362.820756 201.301342 
L 363.013044 204.989153 
L 363.089959 204.223598 
L 363.282247 202.088544 
L 363.359162 202.74888 
L 363.551449 208.793688 
L 363.628364 214.603567 
L 363.666822 213.92207 
L 363.705279 211.662591 
L 363.743737 213.93042 
L 363.820652 233.49152 
L 363.85911 225.886269 
L 364.01294 110.847809 
L 364.051397 120.568681 
L 364.243685 144.155094 
L 364.974378 276.040193 
L 365.051293 307.04433 
L 365.08975 305.573986 
L 365.243581 214.039071 
L 365.282038 231.522943 
L 365.358953 268.985878 
L 365.397411 259.834201 
L 365.705071 102.59137 
L 365.974274 191.294422 
L 366.012731 187.469452 
L 366.320391 56.004062 
L 366.781882 265.16463 
L 366.820339 255.466622 
L 366.897254 237.981258 
L 366.974169 238.506877 
L 367.012627 237.214938 
L 367.051084 237.30917 
L 367.204915 241.023272 
L 367.28183 249.521199 
L 367.320287 244.118763 
L 367.358745 240.694766 
L 367.43566 290.928245 
L 367.482622 346.6 
M 367.861625 346.6 
L 368.089438 253.416619 
L 368.320183 77.382417 
L 368.391676 -1 
M 368.984148 -1 
L 369.000243 346.6 
M 369.631809 346.6 
L 369.973857 94.129074 
L 370.243059 38.196387 
L 370.281517 36.877309 
L 370.473804 58.438579 
L 371.358328 225.409257 
L 371.435243 227.09452 
L 371.62753 233.088165 
L 371.665988 232.783148 
L 371.704445 232.303882 
L 371.742903 232.942024 
L 371.78136 233.789755 
L 371.819818 233.106977 
L 372.319766 208.815237 
L 372.473596 216.127871 
L 372.742799 227.238567 
L 372.858171 229.764257 
L 372.935086 228.48359 
L 373.204289 214.335902 
L 373.473492 176.945205 
L 373.742694 115.689362 
L 374.050355 11.235514 
L 374.088812 14.754807 
L 374.396472 184.899382 
L 374.43493 173.895027 
L 374.511845 155.371028 
L 374.58876 157.931439 
L 374.665675 141.064063 
L 374.704133 154.789317 
L 374.926655 346.6 
M 375.783065 346.6 
L 375.980254 -1 
M 376.717206 -1 
L 376.725012 346.6 
M 377.428937 346.6 
L 377.70463 -1 
M 378.426315 -1 
L 379.049833 287.922154 
L 379.242121 310.729739 
L 379.434409 301.24173 
L 379.742069 255.207821 
L 380.280474 175.753969 
L 380.588134 160.549221 
L 380.81888 163.869435 
L 381.088082 174.20175 
L 381.472658 192.563456 
L 381.626488 196.683647 
L 381.703403 196.123563 
L 381.857233 197.015986 
L 382.04952 201.695866 
L 382.087978 201.324013 
L 382.280266 196.269806 
L 382.318723 196.676763 
L 382.549468 209.538447 
L 382.741756 216.338222 
L 382.780213 215.425547 
L 383.010959 211.264268 
L 383.087874 210.24433 
L 383.126331 211.057524 
L 383.318619 214.765925 
L 383.357076 215.166997 
L 383.395534 214.415733 
L 383.510907 208.765437 
L 383.780109 176.105337 
L 384.126227 101.205951 
L 384.356972 14.911868 
L 384.39543 35.544324 
L 384.505866 346.6 
M 384.591508 346.6 
L 384.741547 303.993108 
L 385.049208 227.171994 
L 385.395325 179.429406 
L 385.626071 170.268492 
L 385.741443 169.18392 
L 385.779901 169.615509 
L 386.010646 174.699823 
L 386.933627 204.681348 
L 387.125914 203.846672 
L 387.241287 200.950595 
L 387.318202 201.410831 
L 387.395117 202.515189 
L 387.433574 202.497668 
L 387.548947 199.756497 
L 387.81815 193.133858 
L 387.856607 193.166836 
L 387.933522 193.789512 
L 388.12581 198.441298 
L 388.164267 198.221546 
L 388.510385 185.944574 
L 388.5873 187.072675 
L 389.010333 198.91071 
L 389.087248 199.275244 
L 389.125706 199.06776 
L 389.471823 196.022908 
L 389.587196 197.543144 
L 389.625654 197.26309 
L 389.741026 195.742151 
L 390.010229 200.552358 
L 390.087144 198.89399 
L 390.433262 190.668258 
L 390.740922 186.592983 
L 390.894752 185.772577 
L 391.048582 188.335186 
L 391.125497 188.064099 
L 391.163955 188.289302 
L 391.471615 198.085856 
L 391.817733 222.343342 
L 392.086935 255.930009 
L 392.125393 249.243604 
L 392.279223 135.592043 
L 392.31768 145.332379 
L 392.471511 161.195006 
L 392.817628 187.263474 
L 393.048374 198.45803 
L 393.125289 198.726176 
L 393.163746 198.52651 
L 393.202204 198.417911 
L 393.394491 202.168102 
L 393.625236 210.14178 
L 393.663694 209.34102 
L 394.048269 192.343254 
L 394.202099 193.433191 
L 394.471302 197.311215 
L 394.50976 197.085719 
L 394.625132 195.363169 
L 394.894335 189.750215 
L 394.932792 189.750728 
L 395.548113 197.302355 
L 395.778858 194.942139 
L 395.817316 195.181543 
L 395.894231 195.792603 
L 395.932688 195.621366 
L 395.971146 195.43268 
L 396.009603 195.569908 
L 396.086518 195.963439 
L 396.124976 195.614919 
L 396.163433 195.235439 
L 396.201891 195.317977 
L 396.317263 196.924162 
L 396.394178 196.691382 
L 396.471094 196.442638 
L 396.586466 194.998446 
L 396.663381 195.305835 
L 396.701839 195.372941 
L 396.817211 194.497861 
L 396.894126 194.720366 
L 397.047956 195.718173 
L 397.086414 195.657196 
L 397.240244 194.155001 
L 397.278702 194.375791 
L 397.432532 196.241803 
L 397.470989 195.843969 
L 397.509447 195.439393 
L 397.547904 195.484292 
L 397.624819 196.23417 
L 397.663277 196.058973 
L 397.77865 195.07133 
L 397.817107 195.152287 
L 397.970937 195.362313 
L 398.009395 195.304667 
L 398.24014 194.187801 
L 398.355512 193.511275 
L 398.39397 193.580877 
L 398.509343 197.514999 
L 398.586258 199.316485 
L 398.624715 199.091079 
L 398.778545 194.724789 
L 398.932375 190.005326 
L 398.970833 190.341547 
L 399.124663 194.998426 
L 399.278493 201.463779 
L 399.316951 201.279291 
L 399.663068 192.099448 
L 399.816899 192.903823 
L 399.970729 193.637734 
L 400.201474 196.177995 
L 400.355304 196.71917 
L 400.393761 196.463857 
L 400.509134 195.500363 
L 400.586049 195.523944 
L 400.855252 194.55834 
L 401.047539 195.882831 
L 401.278285 197.030685 
L 401.50903 194.411248 
L 401.585945 193.84079 
L 401.624402 194.184373 
L 401.701317 194.848133 
L 401.739775 194.588522 
L 401.81669 194.272281 
L 402.008978 195.923135 
L 402.047435 195.733839 
L 402.162808 194.874908 
L 402.201265 195.045648 
L 402.355095 195.539963 
L 402.470468 194.881744 
L 402.585841 193.900245 
L 402.624298 194.117307 
L 402.739671 195.245845 
L 402.778128 195.171311 
L 402.816586 195.211905 
L 402.931958 195.915696 
L 402.970416 195.735087 
L 403.047331 195.382276 
L 403.085788 195.523474 
L 403.162703 195.765112 
L 403.201161 195.577177 
L 403.316534 194.910714 
L 403.354991 195.08012 
L 403.701109 198.099829 
L 403.970312 194.521249 
L 404.008769 194.644717 
L 404.124142 197.091591 
L 404.162599 196.735312 
L 404.354887 192.913347 
L 404.508717 189.665926 
L 404.547174 189.701444 
L 404.62409 190.354687 
L 404.77792 197.879015 
L 404.893292 201.420141 
L 404.93175 201.04418 
L 405.124037 192.291576 
L 405.316325 186.033811 
L 405.39324 187.485613 
L 405.893188 204.833494 
L 405.931646 204.463341 
L 406.085476 200.799766 
L 406.123933 201.132044 
L 406.239306 202.399222 
L 406.277763 202.174193 
L 406.393136 201.52004 
L 406.431593 201.569257 
L 406.470051 201.619521 
L 406.739254 199.503436 
L 407.008456 188.964176 
L 407.508404 144.025454 
L 407.546862 134.311363 
L 407.585319 141.186836 
L 407.739149 253.948439 
L 407.777607 243.70888 
L 407.931437 229.804854 
L 408.239097 205.837501 
L 408.469842 195.868659 
L 408.546757 194.531621 
L 408.892875 186.068415 
L 409.008248 184.819976 
L 409.046705 185.181282 
L 409.392823 191.376268 
L 409.469738 191.127952 
L 409.508196 191.145149 
L 409.585111 191.96938 
L 409.815856 199.736736 
L 409.931228 201.744479 
L 409.969686 201.510359 
L 410.085059 198.722352 
L 410.354261 192.440757 
L 410.392719 192.586758 
L 410.700379 200.28397 
L 410.777294 199.625319 
L 410.931124 198.794086 
L 411.200327 192.618978 
L 411.238784 192.50377 
L 411.354157 190.242656 
L 411.392615 190.392503 
L 411.738732 197.668434 
L 411.77719 197.642032 
L 411.892562 195.688309 
L 411.969477 194.656198 
L 412.007935 194.820489 
L 412.08485 195.149234 
L 412.123308 195.098805 
L 412.23868 195.148582 
L 412.277138 195.193431 
L 412.315595 195.140672 
L 412.430968 194.367811 
L 412.469425 194.703803 
L 412.54634 195.573154 
L 412.584798 195.422202 
L 412.661713 194.799611 
L 412.70017 194.853922 
L 412.815543 196.235058 
L 412.854001 196.215388 
L 412.969373 194.364249 
L 413.046288 194.69014 
L 413.123203 194.277266 
L 413.161661 194.360657 
L 413.315491 196.559735 
L 413.353948 196.356457 
L 413.392406 196.253324 
L 413.430864 196.446133 
L 413.546236 197.402167 
L 413.584694 196.994134 
L 413.815439 194.042202 
L 413.853896 194.023883 
L 413.930811 194.648581 
L 414.084641 196.79067 
L 414.123099 196.326429 
L 414.276929 192.143599 
L 414.315387 192.471449 
L 414.546132 197.00946 
L 414.661504 200.624314 
L 414.699962 200.371176 
L 414.853792 195.91216 
L 415.04608 189.84366 
L 415.084537 190.098188 
L 415.50757 198.950582 
L 415.546028 198.975855 
L 415.622943 198.36145 
L 415.96906 192.875287 
L 416.007518 193.222958 
L 416.045975 193.568759 
L 416.084433 193.533723 
L 416.161348 192.927783 
L 416.199806 193.081341 
L 416.584381 197.786356 
L 416.622838 197.439504 
L 416.815126 193.662859 
L 416.892041 194.291431 
L 416.968956 195.21039 
L 417.007414 195.045648 
L 417.161244 193.889436 
L 417.545819 196.694573 
L 417.584277 196.585945 
L 417.930394 195.015338 
L 418.353427 196.593948 
L 418.391885 196.44751 
L 418.507257 193.78003 
L 418.584172 194.705491 
L 418.738002 195.805834 
L 418.77646 195.73601 
L 418.853375 193.876752 
L 419.007205 189.782659 
L 419.045663 190.129316 
L 419.199493 194.038631 
L 419.39178 201.956139 
L 419.430238 201.396495 
L 419.776356 188.977218 
L 419.853271 189.783299 
L 420.353219 202.186067 
L 420.391676 201.877634 
L 420.660879 198.312603 
L 420.737794 198.694236 
L 420.776251 198.645257 
L 420.930082 196.942433 
L 421.006997 197.353971 
L 421.083912 198.021054 
L 421.122369 197.734379 
L 421.276199 194.407773 
L 421.622317 175.523609 
L 421.660775 177.09698 
L 421.776147 182.181362 
L 421.814605 181.940517 
L 421.853062 181.91023 
L 421.968435 186.298464 
L 422.276095 200.239979 
L 422.583755 213.988234 
L 422.968331 247.742097 
L 423.006788 257.400402 
L 423.045246 250.257681 
L 423.199076 133.011893 
L 423.275991 150.205142 
L 423.929769 196.749824 
L 424.045141 193.792189 
L 424.083599 193.853687 
L 424.314344 198.703051 
L 424.583547 214.746867 
L 424.660462 212.611303 
L 425.083495 194.98501 
L 425.121952 194.702389 
L 425.16041 194.873034 
L 425.237325 195.742391 
L 425.275782 195.620081 
L 425.660358 189.553838 
L 425.737273 190.513047 
L 425.814188 191.492812 
L 425.852645 191.12972 
L 425.92956 190.216244 
L 425.968018 190.36235 
L 426.160305 192.141585 
L 426.429508 196.909225 
L 426.506423 196.437812 
L 426.544881 196.264078 
L 426.583338 196.390191 
L 426.621796 196.48761 
L 426.775626 195.280519 
L 426.852541 195.764991 
L 426.929456 196.342195 
L 426.967913 196.254367 
L 427.006371 196.097129 
L 427.044829 196.215824 
L 427.237116 197.542668 
L 427.314031 197.383898 
L 427.583234 195.259688 
L 427.621691 195.504625 
L 427.698607 195.982855 
L 427.775522 195.912523 
L 427.852437 195.394867 
L 427.929352 194.392377 
L 427.967809 194.399081 
L 428.083182 195.574767 
L 428.121639 195.357552 
L 428.237012 194.207432 
L 428.275469 194.273011 
L 428.352384 194.60341 
L 428.390842 194.426907 
L 428.467757 194.06662 
L 428.775417 195.868831 
L 428.852332 195.086626 
L 428.929247 194.49412 
L 428.967705 194.827659 
L 429.006162 195.01814 
L 429.159993 192.766752 
L 429.19845 193.262863 
L 429.429195 200.038132 
L 429.50611 198.84517 
L 429.813771 189.596716 
L 429.890686 191.975925 
L 430.121431 201.53856 
L 430.159888 201.120253 
L 430.467549 191.507182 
L 430.659836 191.743409 
L 430.736751 193.271439 
L 430.852124 195.529979 
L 430.890581 195.317209 
L 430.929039 195.471619 
L 431.044411 197.374868 
L 431.082869 197.172763 
L 431.275157 195.779901 
L 431.352072 196.012597 
L 431.390529 196.163496 
L 431.428987 196.133166 
L 431.544359 195.317035 
L 431.698189 192.929072 
L 431.736647 193.103263 
L 431.85202 194.646178 
L 431.967392 196.344297 
L 432.00585 196.058347 
L 432.044307 196.093288 
L 432.15968 198.017937 
L 432.198137 197.284464 
L 432.31351 194.836048 
L 432.351967 194.869596 
L 432.390425 194.876141 
L 432.505798 194.63948 
L 432.544255 194.707404 
L 432.62117 194.708592 
L 432.698085 194.550998 
L 432.775 195.291791 
L 432.851915 196.285409 
L 432.890373 196.135651 
L 433.121118 194.609992 
L 433.198033 194.763245 
L 433.313406 194.013968 
L 433.351863 194.457302 
L 433.467236 195.988426 
L 433.505693 195.607662 
L 433.544151 195.285098 
L 433.582608 195.368509 
L 433.659523 195.925393 
L 433.697981 195.601879 
L 433.774896 194.411605 
L 433.813353 194.426201 
L 433.928726 195.598967 
L 433.967184 195.197899 
L 434.044099 194.699395 
L 434.197929 196.343689 
L 434.236386 196.189487 
L 434.274844 196.046921 
L 434.313301 196.130018 
L 434.428674 197.247239 
L 434.505589 196.857906 
L 434.582504 196.099687 
L 434.620962 196.317434 
L 434.659419 196.664027 
L 434.697877 196.592534 
L 434.813249 195.045921 
L 434.851707 195.421443 
L 434.967079 196.398789 
L 435.005537 196.177984 
L 435.197825 192.672145 
L 435.236282 193.465172 
L 435.390112 197.538346 
L 435.42857 197.030525 
L 435.5824 192.418499 
L 435.73623 188.623196 
L 435.774687 188.678057 
L 435.89006 191.521142 
L 436.120805 199.705671 
L 436.159263 198.901937 
L 436.466923 190.838343 
L 436.50538 190.945816 
L 436.697668 197.0754 
L 436.928413 203.159689 
L 437.005328 202.860709 
L 437.043786 202.784036 
L 437.120701 203.168521 
L 437.159158 203.041582 
L 437.236074 202.706995 
L 437.274531 202.90082 
L 437.389904 203.845645 
L 437.428361 203.577518 
L 437.928309 188.617349 
L 438.197512 170.019453 
L 438.466714 132.172385 
L 438.505172 139.800381 
L 438.659002 255.094913 
L 438.69746 244.819885 
L 438.85129 231.202692 
L 439.235865 200.593332 
L 439.658898 187.203288 
L 439.697355 186.620267 
L 439.77427 186.916016 
L 439.812728 186.901357 
L 439.9281 186.102419 
L 439.966558 186.353774 
L 440.158846 189.043716 
L 440.351133 192.684665 
L 440.812624 197.415438 
L 440.851081 197.30968 
L 440.927996 196.745532 
L 440.966454 196.820877 
L 441.004911 196.936954 
L 441.043369 196.708559 
L 441.120284 195.685261 
L 441.158741 196.115215 
L 441.274114 200.258373 
L 441.351029 199.248683 
L 441.581774 195.542665 
L 441.735604 193.439871 
L 441.774062 193.852179 
L 442.081722 199.653027 
L 442.12018 199.737914 
L 442.235552 196.474754 
L 442.466297 189.424992 
L 442.504755 189.536622 
L 442.7355 193.53883 
L 442.927788 197.747721 
L 443.004703 198.165216 
L 443.04316 198.058236 
L 443.389278 192.637776 
L 443.427736 192.060482 
L 443.466193 192.392933 
L 443.543108 193.951701 
L 443.620023 193.486924 
L 443.658481 193.389132 
L 443.735396 195.271204 
L 443.735396 195.271204 
" clip-path="url(#pca6e8a783c)" style="fill: none; stroke: #1f77b4; stroke-width: 1.5; stroke-linecap: square"/>
   </g>
   <g id="patch_3">
    <path d="M 59.15 303.64 
L 59.15 14.76 
" style="fill: none; stroke: #000000; stroke-width: 0.8; stroke-linejoin: miter; stroke-linecap: square"/>
   </g>
   <g id="patch_4">
    <path d="M 443.7 303.64 
L 443.7 14.76 
" style="fill: none; stroke: #000000; stroke-width: 0.8; stroke-linejoin: miter; stroke-linecap: square"/>
   </g>
   <g id="patch_5">
    <path d="M 59.15 303.64 
L 443.7 303.64 
" style="fill: none; stroke: #000000; stroke-width: 0.8; stroke-linejoin: miter; stroke-linecap: square"/>
   </g>
   <g id="patch_6">
    <path d="M 59.15 14.76 
L 443.7 14.76 
" style="fill: none; stroke: #000000; stroke-width: 0.8; stroke-linejoin: miter; stroke-linecap: square"/>
   </g>
  </g>
 </g>
 <defs>
  <clipPath id="pca6e8a783c">
   <rect x="59.15" y="14.76" width="384.55" height="288.88"/>
  </clipPath>
 </defs>
</svg>
